<?xml version="1.0" encoding="UTF-8" standalone="no"?>
<?xml-stylesheet href="styles.css" type="text/css"?>
<!DOCTYPE svg PUBLIC "-//W3C//DTD SVG 1.1//EN"
 "http://www.w3.org/Graphics/SVG/1.1/DTD/svg11.dtd">
<!-- Generated by graphviz version 2.26.3 (20100126.1600)
 -->
<!-- Title: _anonymous_0 Pages: 1 -->
<svg width="275pt" height="288pt"
 viewBox="0.00 0.00 274.92 288.00" xmlns="http://www.w3.org/2000/svg" xmlns:xlink="http://www.w3.org/1999/xlink">
<g id="graph1" class="graph" transform="scale(0.650324 0.650324) rotate(0) translate(4 438.856)">
<title>_anonymous_0</title>
<polygon fill="white" stroke="white" points="-4,5 -4,-438.856 419.748,-438.856 419.748,5 -4,5"/>
<!-- 0 -->
<g id="node1" class="node"><title>0</title>
<ellipse fill="#e41a1c" stroke="#e41a1c" cx="402.748" cy="-90.4666" rx="11" ry="11"/>
</g>
<!-- 6 -->
<g id="node2" class="node"><title>6</title>
<ellipse fill="#377eb8" stroke="#377eb8" cx="402.748" cy="-344.39" rx="11" ry="11"/>
</g>
<!-- 0&#45;&#45;6 -->
<g id="edge2" class="edge"><title>0&#45;&#45;6</title>
<path fill="none" stroke="black" d="M402.748,-101.705C402.748,-143.744 402.748,-291.46 402.748,-333.281"/>
</g>
<!-- 7 -->
<g id="node4" class="node"><title>7</title>
<ellipse fill="#4daf4a" stroke="#4daf4a" cx="161.252" cy="-12" rx="11" ry="11"/>
</g>
<!-- 0&#45;&#45;7 -->
<g id="edge4" class="edge"><title>0&#45;&#45;7</title>
<path fill="none" stroke="black" d="M392.059,-86.9937C352.078,-74.0029 211.591,-28.3561 171.817,-15.4328"/>
</g>
<!-- 1 -->
<g id="node6" class="node"><title>1</title>
<ellipse fill="#377eb8" stroke="#377eb8" cx="272.498" cy="-80.4761" rx="11" ry="11"/>
</g>
<!-- 0&#45;&#45;1 -->
<g id="edge6" class="edge"><title>0&#45;&#45;1</title>
<path fill="none" stroke="black" d="M391.643,-89.6148C367.035,-87.7273 308.157,-83.2112 283.575,-81.3257"/>
</g>
<!-- 10 -->
<g id="node11" class="node"><title>10</title>
<ellipse fill="#e41a1c" stroke="#e41a1c" cx="161.252" cy="-422.856" rx="11" ry="11"/>
</g>
<!-- 6&#45;&#45;10 -->
<g id="edge12" class="edge"><title>6&#45;&#45;10</title>
<path fill="none" stroke="black" d="M392.059,-347.863C352.078,-360.854 211.591,-406.5 171.817,-419.424"/>
</g>
<!-- 11 -->
<g id="node13" class="node"><title>11</title>
<ellipse fill="#377eb8" stroke="#377eb8" cx="12" cy="-217.428" rx="11" ry="11"/>
</g>
<!-- 7&#45;&#45;11 -->
<g id="edge14" class="edge"><title>7&#45;&#45;11</title>
<path fill="none" stroke="black" d="M154.647,-21.0921C129.937,-55.1025 43.1112,-174.607 18.5295,-208.441"/>
</g>
<!-- 1&#45;&#45;7 -->
<g id="edge8" class="edge"><title>1&#45;&#45;7</title>
<path fill="none" stroke="black" d="M263.014,-74.6378C241.996,-61.7008 191.708,-30.7468 170.713,-17.8235"/>
</g>
<!-- 2 -->
<g id="node9" class="node"><title>2</title>
<ellipse fill="#4daf4a" stroke="#4daf4a" cx="250.249" cy="-148.952" rx="11" ry="11"/>
</g>
<!-- 1&#45;&#45;2 -->
<g id="edge10" class="edge"><title>1&#45;&#45;2</title>
<path fill="none" stroke="black" d="M269.022,-91.1755C264.867,-103.965 257.952,-125.246 253.775,-138.102"/>
</g>
<!-- 3 -->
<g id="node15" class="node"><title>3</title>
<ellipse fill="#e41a1c" stroke="#e41a1c" cx="228" cy="-217.428" rx="11" ry="11"/>
</g>
<!-- 2&#45;&#45;3 -->
<g id="edge16" class="edge"><title>2&#45;&#45;3</title>
<path fill="none" stroke="black" d="M246.773,-159.652C242.617,-172.441 235.702,-193.723 231.525,-206.578"/>
</g>
<!-- 8 -->
<g id="node17" class="node"><title>8</title>
<ellipse fill="#e41a1c" stroke="#e41a1c" cx="84" cy="-217.428" rx="11" ry="11"/>
</g>
<!-- 2&#45;&#45;8 -->
<g id="edge18" class="edge"><title>2&#45;&#45;8</title>
<path fill="none" stroke="black" d="M239.85,-153.236C209.993,-165.533 124.247,-200.851 94.3957,-213.146"/>
</g>
<!-- 10&#45;&#45;11 -->
<g id="edge36" class="edge"><title>10&#45;&#45;11</title>
<path fill="none" stroke="black" d="M154.647,-413.764C129.937,-379.754 43.1112,-260.249 18.5295,-226.415"/>
</g>
<!-- 4 -->
<g id="node19" class="node"><title>4</title>
<ellipse fill="#377eb8" stroke="#377eb8" cx="250.249" cy="-285.904" rx="11" ry="11"/>
</g>
<!-- 3&#45;&#45;4 -->
<g id="edge20" class="edge"><title>3&#45;&#45;4</title>
<path fill="none" stroke="black" d="M231.476,-228.128C235.632,-240.917 242.547,-262.199 246.724,-275.054"/>
</g>
<!-- 9 -->
<g id="node21" class="node"><title>9</title>
<ellipse fill="#4daf4a" stroke="#4daf4a" cx="156" cy="-217.428" rx="11" ry="11"/>
</g>
<!-- 3&#45;&#45;9 -->
<g id="edge22" class="edge"><title>3&#45;&#45;9</title>
<path fill="none" stroke="black" d="M216.75,-217.428C203.303,-217.428 180.926,-217.428 167.409,-217.428"/>
</g>
<!-- 8&#45;&#45;11 -->
<g id="edge26" class="edge"><title>8&#45;&#45;11</title>
<path fill="none" stroke="black" d="M72.75,-217.428C59.3027,-217.428 36.9256,-217.428 23.4086,-217.428"/>
</g>
<!-- 8&#45;&#45;9 -->
<g id="edge24" class="edge"><title>8&#45;&#45;9</title>
<path fill="none" stroke="black" d="M95.25,-217.428C108.697,-217.428 131.074,-217.428 144.591,-217.428"/>
</g>
<!-- 4&#45;&#45;9 -->
<g id="edge28" class="edge"><title>4&#45;&#45;9</title>
<path fill="none" stroke="black" d="M241.212,-279.339C223.243,-266.283 183.208,-237.196 165.148,-224.075"/>
</g>
<!-- 5 -->
<g id="node26" class="node"><title>5</title>
<ellipse fill="#4daf4a" stroke="#4daf4a" cx="272.498" cy="-354.38" rx="11" ry="11"/>
</g>
<!-- 4&#45;&#45;5 -->
<g id="edge30" class="edge"><title>4&#45;&#45;5</title>
<path fill="none" stroke="black" d="M253.726,-296.604C257.881,-309.393 264.796,-330.675 268.973,-343.53"/>
</g>
<!-- 5&#45;&#45;6 -->
<g id="edge32" class="edge"><title>5&#45;&#45;6</title>
<path fill="none" stroke="black" d="M283.603,-353.529C308.211,-351.641 367.089,-347.125 391.671,-345.239"/>
</g>
<!-- 5&#45;&#45;10 -->
<g id="edge34" class="edge"><title>5&#45;&#45;10</title>
<path fill="none" stroke="black" d="M263.014,-360.219C241.996,-373.156 191.708,-404.11 170.713,-417.033"/>
</g>
</g>
</svg>
