<?xml version="1.0" encoding="UTF-8" standalone="no"?>
<!DOCTYPE svg PUBLIC "-//W3C//DTD SVG 1.1//EN"
 "http://www.w3.org/Graphics/SVG/1.1/DTD/svg11.dtd">
<!-- Generated by graphviz version 2.26.3 (20100126.1600)
 -->
<!-- Title: G3 Pages: 1 -->
<svg width="80pt" height="90pt"
 viewBox="0.00 0.00 345.12 360.00" xmlns="http://www.w3.org/2000/svg" xmlns:xlink="http://www.w3.org/1999/xlink">
<g id="graph1" class="graph" transform="scale(2.33502 2.33502) rotate(0) translate(4 150.174)">
<title>G3</title>
<polygon fill="white" stroke="white" points="-4,5 -4,-150.174 144.803,-150.174 144.803,5 -4,5"/>
<!-- 0 -->
<g id="node1" class="node"><title>0</title>
<ellipse fill="black" stroke="black" cx="84.5145" cy="-8" rx="7" ry="7"/>
</g>
<!-- 2 -->
<g id="node3" class="node"><title>2</title>
<ellipse fill="black" stroke="black" cx="8" cy="-32.8611" rx="7" ry="7"/>
</g>
<!-- 0&#45;&#45;2 -->
<g id="edge2" class="edge"><title>0&#45;&#45;2</title>
<path fill="none" stroke="black" d="M77.7243,-10.2063C63.241,-14.9122 29.4521,-25.8909 14.8849,-30.624"/>
</g>
<!-- 3 -->
<g id="node5" class="node"><title>3</title>
<ellipse fill="black" stroke="black" cx="131.803" cy="-73.0871" rx="7" ry="7"/>
</g>
<!-- 0&#45;&#45;3 -->
<g id="edge4" class="edge"><title>0&#45;&#45;3</title>
<path fill="none" stroke="black" d="M88.8785,-14.0066C97.9329,-26.4689 118.659,-54.9959 127.586,-67.2824"/>
</g>
<!-- 4 -->
<g id="node9" class="node"><title>4</title>
<ellipse fill="black" stroke="black" cx="8" cy="-113.313" rx="7" ry="7"/>
</g>
<!-- 2&#45;&#45;4 -->
<g id="edge10" class="edge"><title>2&#45;&#45;4</title>
<path fill="none" stroke="black" d="M8,-40.0006C8,-55.2294 8,-90.7571 8,-106.074"/>
</g>
<!-- 1 -->
<g id="node6" class="node"><title>1</title>
<ellipse fill="black" stroke="black" cx="84.5145" cy="-138.174" rx="7" ry="7"/>
</g>
<!-- 1&#45;&#45;3 -->
<g id="edge6" class="edge"><title>1&#45;&#45;3</title>
<path fill="none" stroke="black" d="M88.8785,-132.168C97.9329,-119.705 118.659,-91.1783 127.586,-78.8918"/>
</g>
<!-- 1&#45;&#45;4 -->
<g id="edge8" class="edge"><title>1&#45;&#45;4</title>
<path fill="none" stroke="black" d="M77.7243,-135.968C63.241,-131.262 29.4521,-120.283 14.8849,-115.55"/>
</g>
</g>
</svg>
