<?xml version="1.0" encoding="UTF-8" standalone="no"?>
<!DOCTYPE svg PUBLIC "-//W3C//DTD SVG 1.1//EN"
 "http://www.w3.org/Graphics/SVG/1.1/DTD/svg11.dtd">
<!-- Generated by graphviz version 2.26.3 (20100126.1600)
 -->
<!-- Title: G6 Pages: 1 -->
<svg width="90pt" height="90pt"
 viewBox="0.00 0.00 352.00 360.00" xmlns="http://www.w3.org/2000/svg" xmlns:xlink="http://www.w3.org/1999/xlink">
<g id="graph1" class="graph" transform="scale(1.70763 1.70763) rotate(0) translate(4 206.818)">
<title>G6</title>
<polygon fill="white" stroke="white" points="-4,5 -4,-206.818 203.134,-206.818 203.134,5 -4,5"/>
<!-- 0 -->
<g id="node1" class="node"><title>0</title>
<ellipse fill="black" stroke="black" cx="154.06" cy="-26.5008" rx="7" ry="7"/>
</g>
<!-- 3 -->
<g id="node3" class="node"><title>3</title>
<ellipse fill="black" stroke="black" cx="73.003" cy="-8" rx="7" ry="7"/>
</g>
<!-- 0&#45;&#45;3 -->
<g id="edge2" class="edge"><title>0&#45;&#45;3</title>
<path fill="none" stroke="black" d="M147.149,-24.9234C131.835,-21.4281 95.1941,-13.065 79.8964,-9.57338"/>
</g>
<!-- 4 -->
<g id="node5" class="node"><title>4</title>
<ellipse fill="black" stroke="black" cx="190.134" cy="-101.409" rx="7" ry="7"/>
</g>
<!-- 0&#45;&#45;4 -->
<g id="edge4" class="edge"><title>0&#45;&#45;4</title>
<path fill="none" stroke="black" d="M157.136,-32.8875C163.951,-47.0397 180.258,-80.9014 187.066,-95.0386"/>
</g>
<!-- 6 -->
<g id="node13" class="node"><title>6</title>
<ellipse fill="black" stroke="black" cx="8" cy="-59.8381" rx="7" ry="7"/>
</g>
<!-- 3&#45;&#45;6 -->
<g id="edge14" class="edge"><title>3&#45;&#45;6</title>
<path fill="none" stroke="black" d="M67.4608,-12.4197C55.18,-22.2134 25.7959,-45.6463 13.5281,-55.4296"/>
</g>
<!-- 1 -->
<g id="node6" class="node"><title>1</title>
<ellipse fill="black" stroke="black" cx="154.06" cy="-176.317" rx="7" ry="7"/>
</g>
<!-- 1&#45;&#45;4 -->
<g id="edge6" class="edge"><title>1&#45;&#45;4</title>
<path fill="none" stroke="black" d="M157.136,-169.931C163.951,-155.778 180.258,-121.917 187.066,-107.78"/>
</g>
<!-- 5 -->
<g id="node9" class="node"><title>5</title>
<ellipse fill="black" stroke="black" cx="73.003" cy="-194.818" rx="7" ry="7"/>
</g>
<!-- 1&#45;&#45;5 -->
<g id="edge8" class="edge"><title>1&#45;&#45;5</title>
<path fill="none" stroke="black" d="M147.149,-177.895C131.835,-181.39 95.1941,-189.753 79.8964,-193.245"/>
</g>
<!-- 2 -->
<g id="node10" class="node"><title>2</title>
<ellipse fill="black" stroke="black" cx="8" cy="-142.98" rx="7" ry="7"/>
</g>
<!-- 2&#45;&#45;5 -->
<g id="edge10" class="edge"><title>2&#45;&#45;5</title>
<path fill="none" stroke="black" d="M13.5421,-147.4C25.823,-157.193 55.207,-180.626 67.4749,-190.41"/>
</g>
<!-- 2&#45;&#45;6 -->
<g id="edge12" class="edge"><title>2&#45;&#45;6</title>
<path fill="none" stroke="black" d="M8,-135.891C8,-120.184 8,-82.6 8,-66.9088"/>
</g>
</g>
</svg>
