<?xml version="1.0" encoding="UTF-8" standalone="no"?>
<!DOCTYPE svg PUBLIC "-//W3C//DTD SVG 1.1//EN"
 "http://www.w3.org/Graphics/SVG/1.1/DTD/svg11.dtd">
<!-- Generated by graphviz version 2.26.3 (20100126.1600)
 -->
<!-- Title: G12 Pages: 1 -->
<svg width="90pt" height="90pt"
 viewBox="0.00 0.00 360.00 343.80" xmlns="http://www.w3.org/2000/svg" xmlns:xlink="http://www.w3.org/1999/xlink">
<g id="graph1" class="graph" transform="scale(1.20908 1.20908) rotate(0) translate(4 280.348)">
<title>G12</title>
<polygon fill="white" stroke="white" points="-4,5 -4,-280.348 294.747,-280.348 294.747,5 -4,5"/>
<!-- 0 -->
<g id="node1" class="node"><title>0</title>
<ellipse fill="black" stroke="black" cx="255.606" cy="-57.7221" rx="7" ry="7"/>
</g>
<!-- 1 -->
<g id="node3" class="node"><title>1</title>
<ellipse fill="black" stroke="black" cx="281.747" cy="-138.174" rx="7" ry="7"/>
</g>
<!-- 0&#45;&#45;1 -->
<g id="edge2" class="edge"><title>0&#45;&#45;1</title>
<path fill="none" stroke="black" d="M257.835,-64.5814C262.773,-79.7811 274.59,-116.149 279.523,-131.332"/>
</g>
<!-- 2 -->
<g id="node5" class="node"><title>2</title>
<ellipse fill="black" stroke="black" cx="102.577" cy="-8" rx="7" ry="7"/>
</g>
<!-- 0&#45;&#45;2 -->
<g id="edge4" class="edge"><title>0&#45;&#45;2</title>
<path fill="none" stroke="black" d="M248.633,-55.4565C223.023,-47.1352 134.342,-18.3212 109.243,-10.166"/>
</g>
<!-- 3 -->
<g id="node7" class="node"><title>3</title>
<ellipse fill="black" stroke="black" cx="34.1405" cy="-57.7221" rx="7" ry="7"/>
</g>
<!-- 0&#45;&#45;3 -->
<g id="edge6" class="edge"><title>0&#45;&#45;3</title>
<path fill="none" stroke="black" d="M248.237,-57.7221C214.463,-57.7221 74.6729,-57.7221 41.3127,-57.7221"/>
</g>
<!-- 4 -->
<g id="node9" class="node"><title>4</title>
<ellipse fill="black" stroke="black" cx="8" cy="-138.174" rx="7" ry="7"/>
</g>
<!-- 0&#45;&#45;4 -->
<g id="edge8" class="edge"><title>0&#45;&#45;4</title>
<path fill="none" stroke="black" d="M248.725,-59.9578C213.109,-71.5303 49.9878,-124.532 14.7311,-135.987"/>
</g>
<!-- 5 -->
<g id="node11" class="node"><title>5</title>
<ellipse fill="black" stroke="black" cx="34.1405" cy="-218.626" rx="7" ry="7"/>
</g>
<!-- 0&#45;&#45;5 -->
<g id="edge10" class="edge"><title>0&#45;&#45;5</title>
<path fill="none" stroke="black" d="M249.682,-62.0259C218.315,-84.8155 71.8502,-191.229 40.1862,-214.234"/>
</g>
<!-- 6 -->
<g id="node13" class="node"><title>6</title>
<ellipse fill="black" stroke="black" cx="102.577" cy="-268.348" rx="7" ry="7"/>
</g>
<!-- 0&#45;&#45;6 -->
<g id="edge12" class="edge"><title>0&#45;&#45;6</title>
<path fill="none" stroke="black" d="M251.191,-63.7986C228.845,-94.5558 128.42,-232.778 106.72,-262.646"/>
</g>
<!-- 7 -->
<g id="node15" class="node"><title>7</title>
<ellipse fill="black" stroke="black" cx="187.169" cy="-268.348" rx="7" ry="7"/>
</g>
<!-- 0&#45;&#45;7 -->
<g id="edge14" class="edge"><title>0&#45;&#45;7</title>
<path fill="none" stroke="black" d="M253.329,-64.73C242.892,-96.8513 199.695,-229.8 189.386,-261.527"/>
</g>
<!-- 8 -->
<g id="node17" class="node"><title>8</title>
<ellipse fill="black" stroke="black" cx="255.606" cy="-218.626" rx="7" ry="7"/>
</g>
<!-- 0&#45;&#45;8 -->
<g id="edge16" class="edge"><title>0&#45;&#45;8</title>
<path fill="none" stroke="black" d="M255.606,-65.0539C255.606,-91.982 255.606,-185.226 255.606,-211.617"/>
</g>
<!-- 9 -->
<g id="node19" class="node"><title>9</title>
<ellipse fill="black" stroke="black" cx="187.169" cy="-8" rx="7" ry="7"/>
</g>
<!-- 0&#45;&#45;9 -->
<g id="edge18" class="edge"><title>0&#45;&#45;9</title>
<path fill="none" stroke="black" d="M249.771,-53.4828C236.842,-44.0889 205.905,-21.6125 192.99,-12.2285"/>
</g>
<!-- 1&#45;&#45;2 -->
<g id="edge20" class="edge"><title>1&#45;&#45;2</title>
<path fill="none" stroke="black" d="M275.785,-133.843C248.461,-113.991 135.369,-31.8244 108.38,-12.2157"/>
</g>
<!-- 1&#45;&#45;3 -->
<g id="edge22" class="edge"><title>1&#45;&#45;3</title>
<path fill="none" stroke="black" d="M274.866,-135.938C239.249,-124.366 76.1283,-71.3648 40.8716,-59.9092"/>
</g>
<!-- 1&#45;&#45;4 -->
<g id="edge24" class="edge"><title>1&#45;&#45;4</title>
<path fill="none" stroke="black" d="M274.705,-138.174C236.543,-138.174 54.8033,-138.174 15.5042,-138.174"/>
</g>
<!-- 1&#45;&#45;5 -->
<g id="edge26" class="edge"><title>1&#45;&#45;5</title>
<path fill="none" stroke="black" d="M274.866,-140.41C239.249,-151.982 76.1283,-204.984 40.8716,-216.439"/>
</g>
<!-- 1&#45;&#45;6 -->
<g id="edge28" class="edge"><title>1&#45;&#45;6</title>
<path fill="none" stroke="black" d="M275.785,-142.505C248.461,-162.357 135.369,-244.524 108.38,-264.133"/>
</g>
<!-- 1&#45;&#45;7 -->
<g id="edge30" class="edge"><title>1&#45;&#45;7</title>
<path fill="none" stroke="black" d="M277.437,-144.106C261.609,-165.891 206.801,-241.327 191.289,-262.678"/>
</g>
<!-- 1&#45;&#45;8 -->
<g id="edge32" class="edge"><title>1&#45;&#45;8</title>
<path fill="none" stroke="black" d="M279.518,-145.033C274.579,-160.233 262.763,-196.601 257.829,-211.784"/>
</g>
<!-- 1&#45;&#45;9 -->
<g id="edge34" class="edge"><title>1&#45;&#45;9</title>
<path fill="none" stroke="black" d="M277.437,-132.243C261.609,-110.457 206.801,-35.0212 191.289,-13.6706"/>
</g>
<!-- 2&#45;&#45;3 -->
<g id="edge36" class="edge"><title>2&#45;&#45;3</title>
<path fill="none" stroke="black" d="M96.7422,-12.2393C83.8126,-21.6332 52.8764,-44.1096 39.9606,-53.4936"/>
</g>
<!-- 2&#45;&#45;4 -->
<g id="edge38" class="edge"><title>2&#45;&#45;4</title>
<path fill="none" stroke="black" d="M98.2675,-13.9316C82.4396,-35.7168 27.6321,-111.153 12.1199,-132.504"/>
</g>
<!-- 2&#45;&#45;5 -->
<g id="edge40" class="edge"><title>2&#45;&#45;5</title>
<path fill="none" stroke="black" d="M100.3,-15.0079C89.8632,-47.1292 46.6657,-180.078 36.3568,-211.805"/>
</g>
<!-- 2&#45;&#45;6 -->
<g id="edge42" class="edge"><title>2&#45;&#45;6</title>
<path fill="none" stroke="black" d="M102.577,-15.2349C102.577,-52.6841 102.577,-224.2 102.577,-261.271"/>
</g>
<!-- 2&#45;&#45;7 -->
<g id="edge44" class="edge"><title>2&#45;&#45;7</title>
<path fill="none" stroke="black" d="M104.753,-14.6972C116.546,-50.9907 172.706,-223.836 184.85,-261.211"/>
</g>
<!-- 2&#45;&#45;8 -->
<g id="edge46" class="edge"><title>2&#45;&#45;8</title>
<path fill="none" stroke="black" d="M106.992,-14.0765C129.338,-44.8337 229.763,-183.056 251.463,-212.924"/>
</g>
<!-- 2&#45;&#45;9 -->
<g id="edge48" class="edge"><title>2&#45;&#45;9</title>
<path fill="none" stroke="black" d="M109.789,-8C125.771,-8 164.01,-8 179.975,-8"/>
</g>
<!-- 3&#45;&#45;4 -->
<g id="edge50" class="edge"><title>3&#45;&#45;4</title>
<path fill="none" stroke="black" d="M31.9117,-64.5814C26.9731,-79.7811 15.1565,-116.149 10.2231,-131.332"/>
</g>
<!-- 3&#45;&#45;5 -->
<g id="edge52" class="edge"><title>3&#45;&#45;5</title>
<path fill="none" stroke="black" d="M34.1405,-65.0539C34.1405,-91.982 34.1405,-185.226 34.1405,-211.617"/>
</g>
<!-- 3&#45;&#45;6 -->
<g id="edge54" class="edge"><title>3&#45;&#45;6</title>
<path fill="none" stroke="black" d="M36.4175,-64.73C46.8543,-96.8513 90.0519,-229.8 100.361,-261.527"/>
</g>
<!-- 3&#45;&#45;7 -->
<g id="edge56" class="edge"><title>3&#45;&#45;7</title>
<path fill="none" stroke="black" d="M38.5553,-63.7986C60.9017,-94.5558 161.326,-232.778 183.027,-262.646"/>
</g>
<!-- 3&#45;&#45;8 -->
<g id="edge58" class="edge"><title>3&#45;&#45;8</title>
<path fill="none" stroke="black" d="M40.0641,-62.0259C71.4313,-84.8155 217.896,-191.229 249.56,-214.234"/>
</g>
<!-- 3&#45;&#45;9 -->
<g id="edge60" class="edge"><title>3&#45;&#45;9</title>
<path fill="none" stroke="black" d="M41.1134,-55.4565C66.7236,-47.1352 155.404,-18.3212 180.503,-10.166"/>
</g>
<!-- 4&#45;&#45;5 -->
<g id="edge62" class="edge"><title>4&#45;&#45;5</title>
<path fill="none" stroke="black" d="M10.2287,-145.033C15.1674,-160.233 26.984,-196.601 31.9174,-211.784"/>
</g>
<!-- 4&#45;&#45;6 -->
<g id="edge64" class="edge"><title>4&#45;&#45;6</title>
<path fill="none" stroke="black" d="M12.3095,-144.106C28.1375,-165.891 82.945,-241.327 98.4572,-262.678"/>
</g>
<!-- 4&#45;&#45;7 -->
<g id="edge66" class="edge"><title>4&#45;&#45;7</title>
<path fill="none" stroke="black" d="M13.9613,-142.505C41.2853,-162.357 154.378,-244.524 181.367,-264.133"/>
</g>
<!-- 4&#45;&#45;8 -->
<g id="edge68" class="edge"><title>4&#45;&#45;8</title>
<path fill="none" stroke="black" d="M14.8808,-140.41C50.4971,-151.982 213.618,-204.984 248.875,-216.439"/>
</g>
<!-- 4&#45;&#45;9 -->
<g id="edge70" class="edge"><title>4&#45;&#45;9</title>
<path fill="none" stroke="black" d="M13.9613,-133.843C41.2853,-113.991 154.378,-31.8244 181.367,-12.2157"/>
</g>
<!-- 5&#45;&#45;6 -->
<g id="edge72" class="edge"><title>5&#45;&#45;6</title>
<path fill="none" stroke="black" d="M39.9753,-222.866C52.9049,-232.259 83.8411,-254.736 96.757,-264.12"/>
</g>
<!-- 5&#45;&#45;7 -->
<g id="edge74" class="edge"><title>5&#45;&#45;7</title>
<path fill="none" stroke="black" d="M41.1134,-220.892C66.7236,-229.213 155.404,-258.027 180.503,-266.182"/>
</g>
<!-- 5&#45;&#45;8 -->
<g id="edge76" class="edge"><title>5&#45;&#45;8</title>
<path fill="none" stroke="black" d="M41.509,-218.626C75.2833,-218.626 215.074,-218.626 248.434,-218.626"/>
</g>
<!-- 5&#45;&#45;9 -->
<g id="edge78" class="edge"><title>5&#45;&#45;9</title>
<path fill="none" stroke="black" d="M38.5553,-212.55C60.9017,-181.793 161.326,-43.5701 183.027,-13.7019"/>
</g>
<!-- 6&#45;&#45;7 -->
<g id="edge80" class="edge"><title>6&#45;&#45;7</title>
<path fill="none" stroke="black" d="M109.789,-268.348C125.771,-268.348 164.01,-268.348 179.975,-268.348"/>
</g>
<!-- 6&#45;&#45;8 -->
<g id="edge82" class="edge"><title>6&#45;&#45;8</title>
<path fill="none" stroke="black" d="M109.55,-266.083C135.16,-257.762 223.841,-228.947 248.94,-220.792"/>
</g>
<!-- 6&#45;&#45;9 -->
<g id="edge84" class="edge"><title>6&#45;&#45;9</title>
<path fill="none" stroke="black" d="M104.753,-261.651C116.546,-225.358 172.706,-52.5126 184.85,-15.1369"/>
</g>
<!-- 7&#45;&#45;8 -->
<g id="edge86" class="edge"><title>7&#45;&#45;8</title>
<path fill="none" stroke="black" d="M193.004,-264.109C205.934,-254.715 236.87,-232.239 249.786,-222.855"/>
</g>
<!-- 7&#45;&#45;9 -->
<g id="edge88" class="edge"><title>7&#45;&#45;9</title>
<path fill="none" stroke="black" d="M187.169,-261.113C187.169,-223.664 187.169,-52.1486 187.169,-15.0775"/>
</g>
<!-- 8&#45;&#45;9 -->
<g id="edge90" class="edge"><title>8&#45;&#45;9</title>
<path fill="none" stroke="black" d="M253.329,-211.618C242.892,-179.497 199.695,-46.5487 189.386,-14.8212"/>
</g>
</g>
</svg>
