<?xml version="1.0" encoding="UTF-8" standalone="no"?>
<!DOCTYPE svg PUBLIC "-//W3C//DTD SVG 1.1//EN"
 "http://www.w3.org/Graphics/SVG/1.1/DTD/svg11.dtd">
<!-- Generated by graphviz version 2.26.3 (20100126.1600)
 -->
<!-- Title: G8 Pages: 1 -->
<svg width="90pt" height="90pt"
 viewBox="0.00 0.00 360.00 360.00" xmlns="http://www.w3.org/2000/svg" xmlns:xlink="http://www.w3.org/1999/xlink">
<g id="graph1" class="graph" transform="scale(1.4815 1.4815) rotate(0) translate(4 238.997)">
<title>G8</title>
<polygon fill="white" stroke="white" points="-4,5 -4,-238.997 239.997,-238.997 239.997,5 -4,5"/>
<!-- 0 -->
<g id="node1" class="node"><title>0</title>
<ellipse fill="black" stroke="black" cx="194.926" cy="-40.0714" rx="7" ry="7"/>
</g>
<!-- 1 -->
<g id="node3" class="node"><title>1</title>
<ellipse fill="black" stroke="black" cx="226.997" cy="-117.499" rx="7" ry="7"/>
</g>
<!-- 0&#45;&#45;1 -->
<g id="edge2" class="edge"><title>0&#45;&#45;1</title>
<path fill="none" stroke="black" d="M197.66,-46.6728C203.719,-61.301 218.217,-96.3013 224.27,-110.914"/>
</g>
<!-- 2 -->
<g id="node5" class="node"><title>2</title>
<ellipse fill="black" stroke="black" cx="40.0714" cy="-40.0714" rx="7" ry="7"/>
</g>
<!-- 0&#45;&#45;2 -->
<g id="edge4" class="edge"><title>0&#45;&#45;2</title>
<path fill="none" stroke="black" d="M187.87,-40.0714C162.072,-40.0714 73.0339,-40.0714 47.169,-40.0714"/>
</g>
<!-- 3 -->
<g id="node7" class="node"><title>3</title>
<ellipse fill="black" stroke="black" cx="8" cy="-117.499" rx="7" ry="7"/>
</g>
<!-- 0&#45;&#45;3 -->
<g id="edge6" class="edge"><title>0&#45;&#45;3</title>
<path fill="none" stroke="black" d="M188.273,-42.8271C159.267,-54.8419 44.0029,-102.586 14.7684,-114.695"/>
</g>
<!-- 4 -->
<g id="node9" class="node"><title>4</title>
<ellipse fill="black" stroke="black" cx="40.0714" cy="-194.926" rx="7" ry="7"/>
</g>
<!-- 0&#45;&#45;4 -->
<g id="edge8" class="edge"><title>0&#45;&#45;4</title>
<path fill="none" stroke="black" d="M189.774,-45.2237C166.158,-68.8396 68.4127,-166.584 45.0864,-189.911"/>
</g>
<!-- 5 -->
<g id="node11" class="node"><title>5</title>
<ellipse fill="black" stroke="black" cx="117.499" cy="-226.997" rx="7" ry="7"/>
</g>
<!-- 0&#45;&#45;5 -->
<g id="edge10" class="edge"><title>0&#45;&#45;5</title>
<path fill="none" stroke="black" d="M192.17,-46.7242C180.155,-75.7306 132.411,-190.994 120.302,-220.229"/>
</g>
<!-- 6 -->
<g id="node13" class="node"><title>6</title>
<ellipse fill="black" stroke="black" cx="194.926" cy="-194.926" rx="7" ry="7"/>
</g>
<!-- 0&#45;&#45;6 -->
<g id="edge12" class="edge"><title>0&#45;&#45;6</title>
<path fill="none" stroke="black" d="M194.926,-47.1276C194.926,-72.9248 194.926,-161.963 194.926,-187.828"/>
</g>
<!-- 7 -->
<g id="node15" class="node"><title>7</title>
<ellipse fill="black" stroke="black" cx="117.499" cy="-8" rx="7" ry="7"/>
</g>
<!-- 0&#45;&#45;7 -->
<g id="edge14" class="edge"><title>0&#45;&#45;7</title>
<path fill="none" stroke="black" d="M188.324,-37.337C173.696,-31.2778 138.696,-16.7802 124.083,-10.7275"/>
</g>
<!-- 1&#45;&#45;2 -->
<g id="edge16" class="edge"><title>1&#45;&#45;2</title>
<path fill="none" stroke="black" d="M220.344,-114.743C191.338,-102.728 76.0743,-54.9843 46.8398,-42.875"/>
</g>
<!-- 1&#45;&#45;3 -->
<g id="edge18" class="edge"><title>1&#45;&#45;3</title>
<path fill="none" stroke="black" d="M219.711,-117.499C186.313,-117.499 48.0807,-117.499 15.0923,-117.499"/>
</g>
<!-- 1&#45;&#45;4 -->
<g id="edge20" class="edge"><title>1&#45;&#45;4</title>
<path fill="none" stroke="black" d="M220.344,-120.254C191.338,-132.269 76.0743,-180.013 46.8398,-192.122"/>
</g>
<!-- 1&#45;&#45;5 -->
<g id="edge22" class="edge"><title>1&#45;&#45;5</title>
<path fill="none" stroke="black" d="M222.008,-122.488C203.766,-140.729 140.807,-203.689 122.517,-221.978"/>
</g>
<!-- 1&#45;&#45;6 -->
<g id="edge24" class="edge"><title>1&#45;&#45;6</title>
<path fill="none" stroke="black" d="M224.263,-124.1C218.204,-138.728 203.706,-173.728 197.653,-188.341"/>
</g>
<!-- 1&#45;&#45;7 -->
<g id="edge26" class="edge"><title>1&#45;&#45;7</title>
<path fill="none" stroke="black" d="M222.008,-112.509C203.766,-94.2677 140.807,-31.308 122.517,-13.0188"/>
</g>
<!-- 2&#45;&#45;3 -->
<g id="edge28" class="edge"><title>2&#45;&#45;3</title>
<path fill="none" stroke="black" d="M37.337,-46.6728C31.2778,-61.301 16.7802,-96.3013 10.7275,-110.914"/>
</g>
<!-- 2&#45;&#45;4 -->
<g id="edge30" class="edge"><title>2&#45;&#45;4</title>
<path fill="none" stroke="black" d="M40.0714,-47.1276C40.0714,-72.9248 40.0714,-161.963 40.0714,-187.828"/>
</g>
<!-- 2&#45;&#45;5 -->
<g id="edge32" class="edge"><title>2&#45;&#45;5</title>
<path fill="none" stroke="black" d="M42.8271,-46.7242C54.8419,-75.7306 102.586,-190.994 114.695,-220.229"/>
</g>
<!-- 2&#45;&#45;6 -->
<g id="edge34" class="edge"><title>2&#45;&#45;6</title>
<path fill="none" stroke="black" d="M45.2237,-45.2237C68.8396,-68.8396 166.584,-166.584 189.911,-189.911"/>
</g>
<!-- 2&#45;&#45;7 -->
<g id="edge36" class="edge"><title>2&#45;&#45;7</title>
<path fill="none" stroke="black" d="M46.6728,-37.337C61.301,-31.2778 96.3013,-16.7802 110.914,-10.7275"/>
</g>
<!-- 3&#45;&#45;4 -->
<g id="edge38" class="edge"><title>3&#45;&#45;4</title>
<path fill="none" stroke="black" d="M10.7344,-124.1C16.7936,-138.728 31.2912,-173.728 37.3439,-188.341"/>
</g>
<!-- 3&#45;&#45;5 -->
<g id="edge40" class="edge"><title>3&#45;&#45;5</title>
<path fill="none" stroke="black" d="M12.9895,-122.488C31.2309,-140.729 94.1906,-203.689 112.48,-221.978"/>
</g>
<!-- 3&#45;&#45;6 -->
<g id="edge42" class="edge"><title>3&#45;&#45;6</title>
<path fill="none" stroke="black" d="M14.6528,-120.254C43.6592,-132.269 158.923,-180.013 188.157,-192.122"/>
</g>
<!-- 3&#45;&#45;7 -->
<g id="edge44" class="edge"><title>3&#45;&#45;7</title>
<path fill="none" stroke="black" d="M12.9895,-112.509C31.2309,-94.2677 94.1906,-31.308 112.48,-13.0188"/>
</g>
<!-- 4&#45;&#45;5 -->
<g id="edge46" class="edge"><title>4&#45;&#45;5</title>
<path fill="none" stroke="black" d="M46.6728,-197.66C61.301,-203.719 96.3013,-218.217 110.914,-224.27"/>
</g>
<!-- 4&#45;&#45;6 -->
<g id="edge48" class="edge"><title>4&#45;&#45;6</title>
<path fill="none" stroke="black" d="M47.1276,-194.926C72.9248,-194.926 161.963,-194.926 187.828,-194.926"/>
</g>
<!-- 4&#45;&#45;7 -->
<g id="edge50" class="edge"><title>4&#45;&#45;7</title>
<path fill="none" stroke="black" d="M42.8271,-188.273C54.8419,-159.267 102.586,-44.0029 114.695,-14.7684"/>
</g>
<!-- 5&#45;&#45;6 -->
<g id="edge52" class="edge"><title>5&#45;&#45;6</title>
<path fill="none" stroke="black" d="M124.1,-224.263C138.728,-218.204 173.728,-203.706 188.341,-197.653"/>
</g>
<!-- 5&#45;&#45;7 -->
<g id="edge54" class="edge"><title>5&#45;&#45;7</title>
<path fill="none" stroke="black" d="M117.499,-219.711C117.499,-186.313 117.499,-48.0807 117.499,-15.0923"/>
</g>
<!-- 6&#45;&#45;7 -->
<g id="edge56" class="edge"><title>6&#45;&#45;7</title>
<path fill="none" stroke="black" d="M192.17,-188.273C180.155,-159.267 132.411,-44.0029 120.302,-14.7684"/>
</g>
</g>
</svg>
