<?xml version="1.0" encoding="UTF-8" standalone="no"?>
<!DOCTYPE svg PUBLIC "-//W3C//DTD SVG 1.1//EN"
 "http://www.w3.org/Graphics/SVG/1.1/DTD/svg11.dtd">
<!-- Generated by graphviz version 2.26.3 (20100126.1600)
 -->
<!-- Title: G2 Pages: 1 -->
<svg width="90pt" height="90pt"
 viewBox="0.00 0.00 360.00 360.00" xmlns="http://www.w3.org/2000/svg" xmlns:xlink="http://www.w3.org/1999/xlink">
<g id="graph1" class="graph" transform="scale(2.69666 2.69666) rotate(0) translate(4 129.499)">
<title>G2</title>
<polygon fill="white" stroke="white" points="-4,5 -4,-129.499 130.499,-129.499 130.499,5 -4,5"/>
<!-- 0 -->
<g id="node1" class="node"><title>0</title>
<ellipse fill="black" stroke="black" cx="62.7493" cy="-8" rx="7" ry="7"/>
</g>
<!-- 1 -->
<g id="node3" class="node"><title>1</title>
<ellipse fill="black" stroke="black" cx="117.499" cy="-62.7493" rx="7" ry="7"/>
</g>
<!-- 0&#45;&#45;1 -->
<g id="edge2" class="edge"><title>0&#45;&#45;1</title>
<path fill="none" stroke="black" d="M67.8018,-13.0525C78.1789,-23.4296 101.797,-47.0481 112.299,-57.5493"/>
</g>
<!-- 2 -->
<g id="node5" class="node"><title>2</title>
<ellipse fill="black" stroke="black" cx="62.7493" cy="-117.499" rx="7" ry="7"/>
</g>
<!-- 0&#45;&#45;2 -->
<g id="edge4" class="edge"><title>0&#45;&#45;2</title>
<path fill="none" stroke="black" d="M62.7493,-15.1845C62.7493,-35.0726 62.7493,-90.6815 62.7493,-110.43"/>
</g>
<!-- 3 -->
<g id="node7" class="node"><title>3</title>
<ellipse fill="black" stroke="black" cx="8" cy="-62.7493" rx="7" ry="7"/>
</g>
<!-- 0&#45;&#45;3 -->
<g id="edge6" class="edge"><title>0&#45;&#45;3</title>
<path fill="none" stroke="black" d="M57.6968,-13.0525C47.3197,-23.4296 23.7012,-47.0481 13.2,-57.5493"/>
</g>
<!-- 1&#45;&#45;2 -->
<g id="edge8" class="edge"><title>1&#45;&#45;2</title>
<path fill="none" stroke="black" d="M112.446,-67.8018C102.069,-78.1789 78.4505,-101.797 67.9493,-112.299"/>
</g>
<!-- 1&#45;&#45;3 -->
<g id="edge10" class="edge"><title>1&#45;&#45;3</title>
<path fill="none" stroke="black" d="M110.314,-62.7493C90.426,-62.7493 34.8171,-62.7493 15.0686,-62.7493"/>
</g>
<!-- 2&#45;&#45;3 -->
<g id="edge12" class="edge"><title>2&#45;&#45;3</title>
<path fill="none" stroke="black" d="M57.6968,-112.446C47.3197,-102.069 23.7012,-78.4505 13.2,-67.9493"/>
</g>
</g>
</svg>
