<?xml version="1.0" encoding="UTF-8" standalone="no"?>
<!DOCTYPE svg PUBLIC "-//W3C//DTD SVG 1.1//EN"
 "http://www.w3.org/Graphics/SVG/1.1/DTD/svg11.dtd">
<!-- Generated by graphviz version 2.26.3 (20100126.1600)
 -->
<!-- Title: G1 Pages: 1 -->
<svg width="350pt" height="350pt"
 viewBox="0.00 0.00 1392.73 1390.03" xmlns="http://www.w3.org/2000/svg" xmlns:xlink="http://www.w3.org/1999/xlink">
<g id="graph1" class="graph" transform="scale(1 1) rotate(0) translate(4 1386.03)">
<title>G1</title>
<polygon fill="white" stroke="white" points="-4,5 -4,-1386.03 1389.73,-1386.03 1389.73,5 -4,5"/>
<!-- 0 -->
<g id="node1" class="node"><title>0</title>
<ellipse fill="black" stroke="black" cx="1292.08" cy="-361.32" rx="7" ry="7"/>
</g>
<!-- 2 -->
<g id="node3" class="node"><title>2</title>
<ellipse fill="black" stroke="black" cx="1328.67" cy="-942.948" rx="7" ry="7"/>
</g>
<!-- 0&#45;&#45;2 -->
<g id="edge2" class="edge"><title>0&#45;&#45;2</title>
<path fill="none" stroke="black" d="M1292.54,-368.674C1296.48,-431.268 1324.33,-873.832 1328.22,-935.758"/>
</g>
<!-- 3 -->
<g id="node5" class="node"><title>3</title>
<ellipse fill="black" stroke="black" cx="735.338" cy="-8" rx="7" ry="7"/>
</g>
<!-- 0&#45;&#45;3 -->
<g id="edge4" class="edge"><title>0&#45;&#45;3</title>
<path fill="none" stroke="black" d="M1285.83,-357.352C1228.72,-321.113 798.438,-48.0447 741.543,-11.9377"/>
</g>
<!-- 5 -->
<g id="node7" class="node"><title>5</title>
<ellipse fill="black" stroke="black" cx="1328.67" cy="-439.084" rx="7" ry="7"/>
</g>
<!-- 0&#45;&#45;5 -->
<g id="edge6" class="edge"><title>0&#45;&#45;5</title>
<path fill="none" stroke="black" d="M1295.08,-367.684C1301.9,-382.193 1318.57,-417.611 1325.53,-432.412"/>
</g>
<!-- 15 -->
<g id="node9" class="node"><title>15</title>
<ellipse fill="black" stroke="black" cx="1246.03" cy="-288.755" rx="7" ry="7"/>
</g>
<!-- 0&#45;&#45;15 -->
<g id="edge8" class="edge"><title>0&#45;&#45;15</title>
<path fill="none" stroke="black" d="M1288.15,-355.133C1279.45,-341.424 1258.64,-308.621 1249.95,-294.927"/>
</g>
<!-- 25 -->
<g id="node11" class="node"><title>25</title>
<ellipse fill="black" stroke="black" cx="13.3964" cy="-776.79" rx="7" ry="7"/>
</g>
<!-- 0&#45;&#45;25 -->
<g id="edge10" class="edge"><title>0&#45;&#45;25</title>
<path fill="none" stroke="black" d="M1285.2,-363.555C1189.08,-394.788 116.457,-743.303 20.2833,-774.552"/>
</g>
<!-- 35 -->
<g id="node13" class="node"><title>35</title>
<ellipse fill="black" stroke="black" cx="903.847" cy="-1341.89" rx="7" ry="7"/>
</g>
<!-- 0&#45;&#45;35 -->
<g id="edge12" class="edge"><title>0&#45;&#45;35</title>
<path fill="none" stroke="black" d="M1289.5,-367.841C1257.53,-448.598 938.773,-1253.67 906.482,-1335.23"/>
</g>
<!-- 45 -->
<g id="node15" class="node"><title>45</title>
<ellipse fill="black" stroke="black" cx="325.664" cy="-113.186" rx="7" ry="7"/>
</g>
<!-- 0&#45;&#45;45 -->
<g id="edge14" class="edge"><title>0&#45;&#45;45</title>
<path fill="none" stroke="black" d="M1285.13,-359.535C1202.71,-338.374 413.882,-135.837 332.447,-114.928"/>
</g>
<!-- 4 -->
<g id="node19" class="node"><title>4</title>
<ellipse fill="black" stroke="black" cx="1059.07" cy="-113.186" rx="7" ry="7"/>
</g>
<!-- 2&#45;&#45;4 -->
<g id="edge30" class="edge"><title>2&#45;&#45;4</title>
<path fill="none" stroke="black" d="M1326.5,-936.269C1302.43,-862.189 1085.78,-195.394 1061.31,-120.096"/>
</g>
<!-- 7 -->
<g id="node32" class="node"><title>7</title>
<ellipse fill="black" stroke="black" cx="1292.08" cy="-1020.71" rx="7" ry="7"/>
</g>
<!-- 2&#45;&#45;7 -->
<g id="edge32" class="edge"><title>2&#45;&#45;7</title>
<path fill="none" stroke="black" d="M1325.68,-949.312C1318.85,-963.821 1302.19,-999.239 1295.22,-1014.04"/>
</g>
<!-- 17 -->
<g id="node34" class="node"><title>17</title>
<ellipse fill="black" stroke="black" cx="1355.23" cy="-861.211" rx="7" ry="7"/>
</g>
<!-- 2&#45;&#45;17 -->
<g id="edge34" class="edge"><title>2&#45;&#45;17</title>
<path fill="none" stroke="black" d="M1330.85,-936.259C1335.8,-921.008 1347.9,-883.781 1352.95,-868.224"/>
</g>
<!-- 27 -->
<g id="node36" class="node"><title>27</title>
<ellipse fill="black" stroke="black" cx="193.485" cy="-1159.5" rx="7" ry="7"/>
</g>
<!-- 2&#45;&#45;27 -->
<g id="edge36" class="edge"><title>2&#45;&#45;27</title>
<path fill="none" stroke="black" d="M1321.72,-944.275C1231.4,-961.504 290.233,-1141.04 200.367,-1158.18"/>
</g>
<!-- 37 -->
<g id="node38" class="node"><title>37</title>
<ellipse fill="black" stroke="black" cx="564.129" cy="-1363.26" rx="7" ry="7"/>
</g>
<!-- 2&#45;&#45;37 -->
<g id="edge38" class="edge"><title>2&#45;&#45;37</title>
<path fill="none" stroke="black" d="M1322.52,-946.331C1254.26,-983.856 639.875,-1321.62 570.495,-1359.76"/>
</g>
<!-- 47 -->
<g id="node40" class="node"><title>47</title>
<ellipse fill="black" stroke="black" cx="138.702" cy="-288.755" rx="7" ry="7"/>
</g>
<!-- 2&#45;&#45;47 -->
<g id="edge40" class="edge"><title>2&#45;&#45;47</title>
<path fill="none" stroke="black" d="M1322.27,-939.428C1232.72,-890.199 232.571,-340.36 144.84,-292.129"/>
</g>
<!-- 8 -->
<g id="node42" class="node"><title>8</title>
<ellipse fill="black" stroke="black" cx="325.664" cy="-1268.85" rx="7" ry="7"/>
</g>
<!-- 3&#45;&#45;8 -->
<g id="edge42" class="edge"><title>3&#45;&#45;8</title>
<path fill="none" stroke="black" d="M733.134,-14.7837C702.337,-109.568 358.684,-1167.22 327.871,-1262.05"/>
</g>
<!-- 18 -->
<g id="node44" class="node"><title>18</title>
<ellipse fill="black" stroke="black" cx="649.395" cy="-8" rx="7" ry="7"/>
</g>
<!-- 3&#45;&#45;18 -->
<g id="edge44" class="edge"><title>3&#45;&#45;18</title>
<path fill="none" stroke="black" d="M728.305,-8C712.269,-8 673.126,-8 656.768,-8"/>
</g>
<!-- 28 -->
<g id="node46" class="node"><title>28</title>
<ellipse fill="black" stroke="black" cx="820.604" cy="-18.7716" rx="7" ry="7"/>
</g>
<!-- 3&#45;&#45;28 -->
<g id="edge46" class="edge"><title>3&#45;&#45;28</title>
<path fill="none" stroke="black" d="M742.316,-8.88148C758.225,-10.8913 797.059,-15.7972 813.288,-17.8474"/>
</g>
<!-- 38 -->
<g id="node48" class="node"><title>38</title>
<ellipse fill="black" stroke="black" cx="29.5006" cy="-520.821" rx="7" ry="7"/>
</g>
<!-- 3&#45;&#45;38 -->
<g id="edge48" class="edge"><title>3&#45;&#45;38</title>
<path fill="none" stroke="black" d="M729.656,-12.1279C666.641,-57.9115 99.4304,-470.014 35.3783,-516.55"/>
</g>
<!-- 48 -->
<g id="node50" class="node"><title>48</title>
<ellipse fill="black" stroke="black" cx="29.5006" cy="-861.211" rx="7" ry="7"/>
</g>
<!-- 3&#45;&#45;48 -->
<g id="edge50" class="edge"><title>3&#45;&#45;48</title>
<path fill="none" stroke="black" d="M730.831,-13.4484C673.769,-82.4237 93.1256,-784.301 34.3011,-855.408"/>
</g>
<!-- 6 -->
<g id="node21" class="node"><title>6</title>
<ellipse fill="black" stroke="black" cx="1371.34" cy="-776.79" rx="7" ry="7"/>
</g>
<!-- 5&#45;&#45;6 -->
<g id="edge62" class="edge"><title>5&#45;&#45;6</title>
<path fill="none" stroke="black" d="M1329.56,-446.137C1335.12,-490.086 1364.91,-725.939 1370.45,-769.775"/>
</g>
<!-- 9 -->
<g id="node52" class="node"><title>9</title>
<ellipse fill="black" stroke="black" cx="1355.23" cy="-520.821" rx="7" ry="7"/>
</g>
<!-- 5&#45;&#45;9 -->
<g id="edge64" class="edge"><title>5&#45;&#45;9</title>
<path fill="none" stroke="black" d="M1330.85,-445.773C1335.8,-461.024 1347.9,-498.251 1352.95,-513.808"/>
</g>
<!-- 10 -->
<g id="node64" class="node"><title>10</title>
<ellipse fill="black" stroke="black" cx="138.702" cy="-1093.28" rx="7" ry="7"/>
</g>
<!-- 5&#45;&#45;10 -->
<g id="edge66" class="edge"><title>5&#45;&#45;10</title>
<path fill="none" stroke="black" d="M1322.27,-442.604C1232.72,-491.833 232.571,-1041.67 144.84,-1089.9"/>
</g>
<!-- 20 -->
<g id="node66" class="node"><title>20</title>
<ellipse fill="black" stroke="black" cx="56.0586" cy="-942.948" rx="7" ry="7"/>
</g>
<!-- 5&#45;&#45;20 -->
<g id="edge68" class="edge"><title>5&#45;&#45;20</title>
<path fill="none" stroke="black" d="M1322.13,-441.675C1228.35,-478.805 156.647,-903.122 62.6355,-940.344"/>
</g>
<!-- 30 -->
<g id="node68" class="node"><title>30</title>
<ellipse fill="black" stroke="black" cx="193.485" cy="-222.535" rx="7" ry="7"/>
</g>
<!-- 5&#45;&#45;30 -->
<g id="edge70" class="edge"><title>5&#45;&#45;30</title>
<path fill="none" stroke="black" d="M1321.72,-437.757C1231.4,-420.527 290.233,-240.991 200.367,-223.848"/>
</g>
<!-- 40 -->
<g id="node70" class="node"><title>40</title>
<ellipse fill="black" stroke="black" cx="820.604" cy="-1363.26" rx="7" ry="7"/>
</g>
<!-- 5&#45;&#45;40 -->
<g id="edge72" class="edge"><title>5&#45;&#45;40</title>
<path fill="none" stroke="black" d="M1325.3,-445.23C1283.45,-521.342 866.31,-1280.12 824.052,-1356.99"/>
</g>
<!-- 16 -->
<g id="node23" class="node"><title>16</title>
<ellipse fill="black" stroke="black" cx="1191.25" cy="-222.535" rx="7" ry="7"/>
</g>
<!-- 15&#45;&#45;16 -->
<g id="edge162" class="edge"><title>15&#45;&#45;16</title>
<path fill="none" stroke="black" d="M1241.36,-283.109C1231.01,-270.599 1206.25,-240.664 1195.91,-228.167"/>
</g>
<!-- 19 -->
<g id="node54" class="node"><title>19</title>
<ellipse fill="black" stroke="black" cx="983.755" cy="-71.7827" rx="7" ry="7"/>
</g>
<!-- 15&#45;&#45;19 -->
<g id="edge164" class="edge"><title>15&#45;&#45;19</title>
<path fill="none" stroke="black" d="M1240.55,-284.224C1206.42,-255.987 1023.25,-104.454 989.203,-76.2896"/>
</g>
<!-- 41 -->
<g id="node79" class="node"><title>41</title>
<ellipse fill="black" stroke="black" cx="480.885" cy="-40.1448" rx="7" ry="7"/>
</g>
<!-- 15&#45;&#45;41 -->
<g id="edge170" class="edge"><title>15&#45;&#45;41</title>
<path fill="none" stroke="black" d="M1238.94,-286.453C1166.33,-262.859 558.608,-65.3985 487.64,-42.3396"/>
</g>
<!-- 32 -->
<g id="node86" class="node"><title>32</title>
<ellipse fill="black" stroke="black" cx="1246.03" cy="-1093.28" rx="7" ry="7"/>
</g>
<!-- 15&#45;&#45;32 -->
<g id="edge168" class="edge"><title>15&#45;&#45;32</title>
<path fill="none" stroke="black" d="M1246.03,-295.956C1246.03,-371.148 1246.03,-1011.39 1246.03,-1086.16"/>
</g>
<!-- 23 -->
<g id="node93" class="node"><title>23</title>
<ellipse fill="black" stroke="black" cx="256.135" cy="-1218.33" rx="7" ry="7"/>
</g>
<!-- 15&#45;&#45;23 -->
<g id="edge166" class="edge"><title>15&#45;&#45;23</title>
<path fill="none" stroke="black" d="M1240.7,-293.757C1166.29,-363.638 335.92,-1143.41 261.466,-1213.32"/>
</g>
<!-- 26 -->
<g id="node25" class="node"><title>26</title>
<ellipse fill="black" stroke="black" cx="56.0586" cy="-439.084" rx="7" ry="7"/>
</g>
<!-- 25&#45;&#45;26 -->
<g id="edge242" class="edge"><title>25&#45;&#45;26</title>
<path fill="none" stroke="black" d="M14.2875,-769.736C19.8396,-725.787 49.6347,-489.935 55.1724,-446.098"/>
</g>
<!-- 29 -->
<g id="node56" class="node"><title>29</title>
<ellipse fill="black" stroke="black" cx="564.129" cy="-18.7716" rx="7" ry="7"/>
</g>
<!-- 25&#45;&#45;29 -->
<g id="edge244" class="edge"><title>25&#45;&#45;29</title>
<path fill="none" stroke="black" d="M17.5128,-771.124C65.1539,-705.552 511.188,-91.6381 559.831,-24.6874"/>
</g>
<!-- 42 -->
<g id="node88" class="node"><title>42</title>
<ellipse fill="black" stroke="black" cx="8" cy="-691.016" rx="7" ry="7"/>
</g>
<!-- 25&#45;&#45;42 -->
<g id="edge248" class="edge"><title>25&#45;&#45;42</title>
<path fill="none" stroke="black" d="M12.9548,-769.77C11.9479,-753.766 9.49012,-714.701 8.46301,-698.375"/>
</g>
<!-- 34 -->
<g id="node103" class="node"><title>34</title>
<ellipse fill="black" stroke="black" cx="1191.25" cy="-1159.5" rx="7" ry="7"/>
</g>
<!-- 25&#45;&#45;34 -->
<g id="edge246" class="edge"><title>25&#45;&#45;34</title>
<path fill="none" stroke="black" d="M20.3135,-779.037C112.317,-808.931 1092.67,-1127.47 1184.38,-1157.26"/>
</g>
<!-- 36 -->
<g id="node27" class="node"><title>36</title>
<ellipse fill="black" stroke="black" cx="649.395" cy="-1374.03" rx="7" ry="7"/>
</g>
<!-- 35&#45;&#45;36 -->
<g id="edge302" class="edge"><title>35&#45;&#45;36</title>
<path fill="none" stroke="black" d="M896.776,-1342.78C860.335,-1347.38 694.011,-1368.4 656.796,-1373.1"/>
</g>
<!-- 39 -->
<g id="node58" class="node"><title>39</title>
<ellipse fill="black" stroke="black" cx="13.3964" cy="-605.242" rx="7" ry="7"/>
</g>
<!-- 35&#45;&#45;39 -->
<g id="edge304" class="edge"><title>35&#45;&#45;39</title>
<path fill="none" stroke="black" d="M898.161,-1337.18C826.027,-1277.51 90.6454,-669.148 19.0028,-609.88"/>
</g>
<!-- 43 -->
<g id="node97" class="node"><title>43</title>
<ellipse fill="black" stroke="black" cx="735.338" cy="-1374.03" rx="7" ry="7"/>
</g>
<!-- 35&#45;&#45;43 -->
<g id="edge306" class="edge"><title>35&#45;&#45;43</title>
<path fill="none" stroke="black" d="M896.606,-1343.27C868.888,-1348.56 769.71,-1367.47 742.364,-1372.69"/>
</g>
<!-- 46 -->
<g id="node29" class="node"><title>46</title>
<ellipse fill="black" stroke="black" cx="1059.07" cy="-1268.85" rx="7" ry="7"/>
</g>
<!-- 45&#45;&#45;46 -->
<g id="edge342" class="edge"><title>45&#45;&#45;46</title>
<path fill="none" stroke="black" d="M329.436,-119.129C383.481,-204.291 1001.1,-1177.5 1055.28,-1262.87"/>
</g>
<!-- 49 -->
<g id="node60" class="node"><title>49</title>
<ellipse fill="black" stroke="black" cx="400.977" cy="-1310.25" rx="7" ry="7"/>
</g>
<!-- 45&#45;&#45;49 -->
<g id="edge344" class="edge"><title>45&#45;&#45;49</title>
<path fill="none" stroke="black" d="M326.107,-120.216C331.984,-213.625 394.546,-1208.02 400.52,-1302.98"/>
</g>
<!-- 1 -->
<g id="node16" class="node"><title>1</title>
<ellipse fill="black" stroke="black" cx="1128.6" cy="-163.703" rx="7" ry="7"/>
</g>
<!-- 1&#45;&#45;3 -->
<g id="edge16" class="edge"><title>1&#45;&#45;3</title>
<path fill="none" stroke="black" d="M1121.77,-161C1073.94,-142.061 789.486,-29.4389 742.045,-10.6555"/>
</g>
<!-- 1&#45;&#45;4 -->
<g id="edge18" class="edge"><title>1&#45;&#45;4</title>
<path fill="none" stroke="black" d="M1122.67,-159.396C1109.53,-149.852 1078.1,-127.016 1064.98,-117.482"/>
</g>
<!-- 1&#45;&#45;6 -->
<g id="edge20" class="edge"><title>1&#45;&#45;6</title>
<path fill="none" stroke="black" d="M1131.32,-170.588C1156.22,-233.471 1343.82,-707.303 1368.63,-769.957"/>
</g>
<!-- 1&#45;&#45;16 -->
<g id="edge22" class="edge"><title>1&#45;&#45;16</title>
<path fill="none" stroke="black" d="M1133.94,-168.719C1145.78,-179.834 1174.1,-206.428 1185.92,-217.532"/>
</g>
<!-- 1&#45;&#45;26 -->
<g id="edge24" class="edge"><title>1&#45;&#45;26</title>
<path fill="none" stroke="black" d="M1121.75,-165.461C1034.95,-187.746 150.922,-414.727 63.0798,-437.281"/>
</g>
<!-- 1&#45;&#45;36 -->
<g id="edge26" class="edge"><title>1&#45;&#45;36</title>
<path fill="none" stroke="black" d="M1126.02,-170.214C1090,-261.201 688.018,-1276.48 651.975,-1367.51"/>
</g>
<!-- 1&#45;&#45;46 -->
<g id="edge28" class="edge"><title>1&#45;&#45;46</title>
<path fill="none" stroke="black" d="M1128.15,-170.76C1122.53,-260.194 1065.22,-1171.1 1059.52,-1261.61"/>
</g>
<!-- 4&#45;&#45;9 -->
<g id="edge52" class="edge"><title>4&#45;&#45;9</title>
<path fill="none" stroke="black" d="M1063.25,-118.949C1096.51,-164.721 1317.51,-468.903 1350.99,-514.978"/>
</g>
<!-- 4&#45;&#45;19 -->
<g id="edge54" class="edge"><title>4&#45;&#45;19</title>
<path fill="none" stroke="black" d="M1052.9,-109.798C1038.85,-102.073 1004.55,-83.2155 990.217,-75.3351"/>
</g>
<!-- 4&#45;&#45;29 -->
<g id="edge56" class="edge"><title>4&#45;&#45;29</title>
<path fill="none" stroke="black" d="M1052.07,-111.852C996.496,-101.25 627.166,-30.7966 571.223,-20.125"/>
</g>
<!-- 4&#45;&#45;39 -->
<g id="edge58" class="edge"><title>4&#45;&#45;39</title>
<path fill="none" stroke="black" d="M1052.66,-116.201C969.463,-155.351 102.515,-563.306 19.7362,-602.259"/>
</g>
<!-- 4&#45;&#45;49 -->
<g id="edge60" class="edge"><title>4&#45;&#45;49</title>
<path fill="none" stroke="black" d="M1055.68,-119.341C1007.19,-207.555 452.993,-1215.63 404.378,-1304.06"/>
</g>
<!-- 6&#45;&#45;7 -->
<g id="edge74" class="edge"><title>6&#45;&#45;7</title>
<path fill="none" stroke="black" d="M1369.13,-783.568C1357.78,-818.501 1305.98,-977.941 1294.39,-1013.62"/>
</g>
<!-- 11 -->
<g id="node73" class="node"><title>11</title>
<ellipse fill="black" stroke="black" cx="1376.73" cy="-691.016" rx="7" ry="7"/>
</g>
<!-- 6&#45;&#45;11 -->
<g id="edge76" class="edge"><title>6&#45;&#45;11</title>
<path fill="none" stroke="black" d="M1371.78,-769.77C1372.78,-753.766 1375.24,-714.701 1376.27,-698.375"/>
</g>
<!-- 21 -->
<g id="node75" class="node"><title>21</title>
<ellipse fill="black" stroke="black" cx="480.885" cy="-1341.89" rx="7" ry="7"/>
</g>
<!-- 6&#45;&#45;21 -->
<g id="edge78" class="edge"><title>6&#45;&#45;21</title>
<path fill="none" stroke="black" d="M1365.17,-780.7C1290.5,-828.092 560.831,-1291.15 486.917,-1338.06"/>
</g>
<!-- 31 -->
<g id="node77" class="node"><title>31</title>
<ellipse fill="black" stroke="black" cx="983.755" cy="-1310.25" rx="7" ry="7"/>
</g>
<!-- 6&#45;&#45;31 -->
<g id="edge80" class="edge"><title>6&#45;&#45;31</title>
<path fill="none" stroke="black" d="M1366.98,-782.781C1327.23,-837.496 1027.68,-1249.79 988.075,-1304.3"/>
</g>
<!-- 6&#45;&#45;41 -->
<g id="edge82" class="edge"><title>6&#45;&#45;41</title>
<path fill="none" stroke="black" d="M1365.65,-772.086C1293.52,-712.411 558.134,-104.051 486.492,-44.7828"/>
</g>
<!-- 16&#45;&#45;17 -->
<g id="edge172" class="edge"><title>16&#45;&#45;17</title>
<path fill="none" stroke="black" d="M1193.09,-229.708C1209.91,-295.215 1336.65,-788.824 1353.4,-854.093"/>
</g>
<!-- 16&#45;&#45;42 -->
<g id="edge178" class="edge"><title>16&#45;&#45;42</title>
<path fill="none" stroke="black" d="M1184.59,-225.17C1093.9,-261.078 105.203,-652.53 14.6353,-688.389"/>
</g>
<!-- 33 -->
<g id="node95" class="node"><title>33</title>
<ellipse fill="black" stroke="black" cx="256.135" cy="-163.703" rx="7" ry="7"/>
</g>
<!-- 16&#45;&#45;33 -->
<g id="edge176" class="edge"><title>16&#45;&#45;33</title>
<path fill="none" stroke="black" d="M1184.26,-222.095C1103.37,-217.006 346.025,-169.358 263.433,-164.162"/>
</g>
<!-- 24 -->
<g id="node101" class="node"><title>24</title>
<ellipse fill="black" stroke="black" cx="903.847" cy="-40.1448" rx="7" ry="7"/>
</g>
<!-- 16&#45;&#45;24 -->
<g id="edge174" class="edge"><title>16&#45;&#45;24</title>
<path fill="none" stroke="black" d="M1185.25,-218.725C1147.84,-194.989 947.123,-67.6086 909.817,-43.9333"/>
</g>
<!-- 26&#45;&#45;27 -->
<g id="edge250" class="edge"><title>26&#45;&#45;27</title>
<path fill="none" stroke="black" d="M57.4188,-446.214C70.7994,-516.358 178.681,-1081.89 192.113,-1152.31"/>
</g>
<!-- 26&#45;&#45;30 -->
<g id="edge252" class="edge"><title>26&#45;&#45;30</title>
<path fill="none" stroke="black" d="M60.0233,-432.836C80.0032,-401.353 169.487,-260.35 189.504,-228.808"/>
</g>
<!-- 26&#45;&#45;43 -->
<g id="edge254" class="edge"><title>26&#45;&#45;43</title>
<path fill="none" stroke="black" d="M60.3963,-445.054C115.424,-520.793 676.409,-1292.92 731.061,-1368.15"/>
</g>
<!-- 36&#45;&#45;37 -->
<g id="edge308" class="edge"><title>36&#45;&#45;37</title>
<path fill="none" stroke="black" d="M642.417,-1373.15C626.508,-1371.14 587.673,-1366.23 571.445,-1364.18"/>
</g>
<!-- 44 -->
<g id="node105" class="node"><title>44</title>
<ellipse fill="black" stroke="black" cx="400.977" cy="-71.7827" rx="7" ry="7"/>
</g>
<!-- 36&#45;&#45;44 -->
<g id="edge310" class="edge"><title>36&#45;&#45;44</title>
<path fill="none" stroke="black" d="M648.058,-1367.03C629.383,-1269.13 421,-176.743 402.315,-78.7965"/>
</g>
<!-- 46&#45;&#45;47 -->
<g id="edge346" class="edge"><title>46&#45;&#45;47</title>
<path fill="none" stroke="black" d="M1054.12,-1263.57C984.928,-1189.89 212.883,-367.75 143.659,-294.034"/>
</g>
<!-- 7&#45;&#45;8 -->
<g id="edge84" class="edge"><title>7&#45;&#45;8</title>
<path fill="none" stroke="black" d="M1285.13,-1022.5C1202.71,-1043.66 413.882,-1246.19 332.447,-1267.1"/>
</g>
<!-- 12 -->
<g id="node82" class="node"><title>12</title>
<ellipse fill="black" stroke="black" cx="1128.6" cy="-1218.33" rx="7" ry="7"/>
</g>
<!-- 7&#45;&#45;12 -->
<g id="edge86" class="edge"><title>7&#45;&#45;12</title>
<path fill="none" stroke="black" d="M1287.36,-1026.41C1263.6,-1055.14 1157.15,-1183.82 1133.33,-1212.6"/>
</g>
<!-- 22 -->
<g id="node84" class="node"><title>22</title>
<ellipse fill="black" stroke="black" cx="92.6515" cy="-361.32" rx="7" ry="7"/>
</g>
<!-- 7&#45;&#45;22 -->
<g id="edge88" class="edge"><title>7&#45;&#45;22</title>
<path fill="none" stroke="black" d="M1285.91,-1017.32C1197.53,-968.729 187.455,-413.439 98.8502,-364.728"/>
</g>
<!-- 7&#45;&#45;32 -->
<g id="edge90" class="edge"><title>7&#45;&#45;32</title>
<path fill="none" stroke="black" d="M1288.15,-1026.9C1279.45,-1040.61 1258.64,-1073.41 1249.95,-1087.11"/>
</g>
<!-- 7&#45;&#45;42 -->
<g id="edge92" class="edge"><title>7&#45;&#45;42</title>
<path fill="none" stroke="black" d="M1285.17,-1018.94C1188.64,-994.153 111.496,-717.589 14.916,-692.792"/>
</g>
<!-- 17&#45;&#45;18 -->
<g id="edge180" class="edge"><title>17&#45;&#45;18</title>
<path fill="none" stroke="black" d="M1350.72,-855.762C1293.66,-786.787 713.02,-84.9094 654.195,-13.8028"/>
</g>
<!-- 17&#45;&#45;20 -->
<g id="edge182" class="edge"><title>17&#45;&#45;20</title>
<path fill="none" stroke="black" d="M1348.24,-861.651C1250.58,-867.795 160.771,-936.36 63.0558,-942.508"/>
</g>
<!-- 17&#45;&#45;43 -->
<g id="edge186" class="edge"><title>17&#45;&#45;43</title>
<path fill="none" stroke="black" d="M1349.49,-865.96C1290.66,-914.629 798.306,-1321.94 740.811,-1369.5"/>
</g>
<!-- 17&#45;&#45;34 -->
<g id="edge184" class="edge"><title>17&#45;&#45;34</title>
<path fill="none" stroke="black" d="M1351.81,-867.441C1330.47,-906.26 1215.94,-1114.58 1194.65,-1153.3"/>
</g>
<!-- 27&#45;&#45;28 -->
<g id="edge256" class="edge"><title>27&#45;&#45;28</title>
<path fill="none" stroke="black" d="M196.859,-1153.36C244.003,-1067.61 770.058,-110.713 817.226,-24.9154"/>
</g>
<!-- 27&#45;&#45;31 -->
<g id="edge258" class="edge"><title>27&#45;&#45;31</title>
<path fill="none" stroke="black" d="M200.558,-1160.85C274.418,-1174.94 903.319,-1294.9 976.764,-1308.92"/>
</g>
<!-- 27&#45;&#45;44 -->
<g id="edge260" class="edge"><title>27&#45;&#45;44</title>
<path fill="none" stroke="black" d="M194.81,-1152.55C211.601,-1064.53 382.625,-167.989 399.619,-78.9032"/>
</g>
<!-- 37&#45;&#45;38 -->
<g id="edge312" class="edge"><title>37&#45;&#45;38</title>
<path fill="none" stroke="black" d="M560.133,-1356.96C513.789,-1283.94 79.1023,-598.981 33.3853,-526.942"/>
</g>
<!-- 37&#45;&#45;40 -->
<g id="edge314" class="edge"><title>37&#45;&#45;40</title>
<path fill="none" stroke="black" d="M571.256,-1363.26C608.067,-1363.26 776.372,-1363.26 813.389,-1363.26"/>
</g>
<!-- 47&#45;&#45;48 -->
<g id="edge348" class="edge"><title>47&#45;&#45;48</title>
<path fill="none" stroke="black" d="M137.322,-295.993C125.569,-357.601 42.4772,-793.185 30.8505,-854.134"/>
</g>
<!-- 8&#45;&#45;9 -->
<g id="edge94" class="edge"><title>8&#45;&#45;9</title>
<path fill="none" stroke="black" d="M331.455,-1264.64C410.288,-1207.36 1268.89,-583.55 1349.21,-525.193"/>
</g>
<!-- 13 -->
<g id="node91" class="node"><title>13</title>
<ellipse fill="black" stroke="black" cx="92.6515" cy="-1020.71" rx="7" ry="7"/>
</g>
<!-- 8&#45;&#45;13 -->
<g id="edge96" class="edge"><title>8&#45;&#45;13</title>
<path fill="none" stroke="black" d="M320.798,-1263.66C290.473,-1231.37 127.738,-1058.07 97.4916,-1025.87"/>
</g>
<!-- 8&#45;&#45;23 -->
<g id="edge98" class="edge"><title>8&#45;&#45;23</title>
<path fill="none" stroke="black" d="M319.736,-1264.54C306.6,-1254.99 275.17,-1232.16 262.048,-1222.63"/>
</g>
<!-- 8&#45;&#45;33 -->
<g id="edge100" class="edge"><title>8&#45;&#45;33</title>
<path fill="none" stroke="black" d="M325.22,-1261.79C319.594,-1172.35 262.285,-261.45 256.59,-170.937"/>
</g>
<!-- 8&#45;&#45;43 -->
<g id="edge102" class="edge"><title>8&#45;&#45;43</title>
<path fill="none" stroke="black" d="M332.775,-1270.67C382.607,-1283.47 678.93,-1359.55 728.351,-1372.24"/>
</g>
<!-- 18&#45;&#45;19 -->
<g id="edge188" class="edge"><title>18&#45;&#45;19</title>
<path fill="none" stroke="black" d="M656.378,-9.33219C699.892,-17.6329 933.408,-62.1785 976.81,-70.4579"/>
</g>
<!-- 18&#45;&#45;30 -->
<g id="edge192" class="edge"><title>18&#45;&#45;30</title>
<path fill="none" stroke="black" d="M642.95,-11.0327C591.757,-35.1221 251.551,-195.211 200.02,-219.46"/>
</g>
<!-- 18&#45;&#45;21 -->
<g id="edge190" class="edge"><title>18&#45;&#45;21</title>
<path fill="none" stroke="black" d="M648.488,-15.1767C635.82,-115.452 494.467,-1234.38 481.793,-1334.7"/>
</g>
<!-- 18&#45;&#45;44 -->
<g id="edge194" class="edge"><title>18&#45;&#45;44</title>
<path fill="none" stroke="black" d="M642.491,-9.77249C606.915,-18.9069 444.536,-60.5988 408.203,-69.9274"/>
</g>
<!-- 28&#45;&#45;29 -->
<g id="edge262" class="edge"><title>28&#45;&#45;29</title>
<path fill="none" stroke="black" d="M813.476,-18.7716C776.665,-18.7716 608.361,-18.7716 571.343,-18.7716"/>
</g>
<!-- 28&#45;&#45;40 -->
<g id="edge266" class="edge"><title>28&#45;&#45;40</title>
<path fill="none" stroke="black" d="M820.604,-26.0053C820.604,-127.077 820.604,-1254.9 820.604,-1356.02"/>
</g>
<!-- 28&#45;&#45;32 -->
<g id="edge264" class="edge"><title>28&#45;&#45;32</title>
<path fill="none" stroke="black" d="M823.21,-25.3546C857.059,-110.848 1209.77,-1001.7 1243.45,-1086.76"/>
</g>
<!-- 38&#45;&#45;39 -->
<g id="edge316" class="edge"><title>38&#45;&#45;39</title>
<path fill="none" stroke="black" d="M28.1828,-527.729C25.1779,-543.481 17.8433,-581.931 14.7782,-597.999"/>
</g>
<!-- 38&#45;&#45;41 -->
<g id="edge318" class="edge"><title>38&#45;&#45;41</title>
<path fill="none" stroke="black" d="M34.5699,-515.423C80.8674,-466.121 429.726,-94.6239 475.855,-45.5019"/>
</g>
<!-- 48&#45;&#45;49 -->
<g id="edge350" class="edge"><title>48&#45;&#45;49</title>
<path fill="none" stroke="black" d="M34.1975,-866.888C74.1757,-915.214 356.834,-1256.89 396.385,-1304.7"/>
</g>
<!-- 14 -->
<g id="node99" class="node"><title>14</title>
<ellipse fill="black" stroke="black" cx="1371.34" cy="-605.242" rx="7" ry="7"/>
</g>
<!-- 9&#45;&#45;14 -->
<g id="edge104" class="edge"><title>9&#45;&#45;14</title>
<path fill="none" stroke="black" d="M1356.55,-527.729C1359.55,-543.481 1366.89,-581.931 1369.95,-597.999"/>
</g>
<!-- 9&#45;&#45;24 -->
<g id="edge106" class="edge"><title>9&#45;&#45;24</title>
<path fill="none" stroke="black" d="M1350.16,-515.423C1303.87,-466.121 955.006,-94.6239 908.878,-45.5019"/>
</g>
<!-- 9&#45;&#45;34 -->
<g id="edge108" class="edge"><title>9&#45;&#45;34</title>
<path fill="none" stroke="black" d="M1353.39,-527.993C1336.57,-593.501 1209.83,-1087.11 1193.08,-1152.38"/>
</g>
<!-- 9&#45;&#45;44 -->
<g id="edge110" class="edge"><title>9&#45;&#45;44</title>
<path fill="none" stroke="black" d="M1348.89,-517.835C1270.3,-480.853 486.823,-112.179 407.454,-74.8305"/>
</g>
<!-- 19&#45;&#45;40 -->
<g id="edge200" class="edge"><title>19&#45;&#45;40</title>
<path fill="none" stroke="black" d="M982.877,-78.7312C970.613,-175.818 833.754,-1259.17 821.482,-1356.3"/>
</g>
<!-- 19&#45;&#45;31 -->
<g id="edge198" class="edge"><title>19&#45;&#45;31</title>
<path fill="none" stroke="black" d="M983.755,-79.0558C983.755,-175.794 983.755,-1206.6 983.755,-1303.02"/>
</g>
<!-- 19&#45;&#45;22 -->
<g id="edge196" class="edge"><title>19&#45;&#45;22</title>
<path fill="none" stroke="black" d="M977.095,-73.9468C900.01,-98.9932 178.311,-333.487 99.606,-359.06"/>
</g>
<!-- 29&#45;&#45;41 -->
<g id="edge270" class="edge"><title>29&#45;&#45;41</title>
<path fill="none" stroke="black" d="M557.317,-20.5206C541.785,-24.5086 503.872,-34.243 488.028,-38.311"/>
</g>
<!-- 29&#45;&#45;33 -->
<g id="edge268" class="edge"><title>29&#45;&#45;33</title>
<path fill="none" stroke="black" d="M557.696,-21.7987C517.613,-40.66 302.512,-141.879 262.532,-160.692"/>
</g>
<!-- 39&#45;&#45;42 -->
<g id="edge320" class="edge"><title>39&#45;&#45;42</title>
<path fill="none" stroke="black" d="M12.9548,-612.261C11.9479,-628.265 9.49012,-667.331 8.46301,-683.656"/>
</g>
<!-- 10&#45;&#45;16 -->
<g id="edge116" class="edge"><title>10&#45;&#45;16</title>
<path fill="none" stroke="black" d="M144.365,-1088.59C223.49,-1023.13 1106.41,-292.716 1185.58,-227.225"/>
</g>
<!-- 10&#45;&#45;27 -->
<g id="edge118" class="edge"><title>10&#45;&#45;27</title>
<path fill="none" stroke="black" d="M143.373,-1098.92C153.723,-1111.43 178.487,-1141.37 188.826,-1153.87"/>
</g>
<!-- 10&#45;&#45;38 -->
<g id="edge120" class="edge"><title>10&#45;&#45;38</title>
<path fill="none" stroke="black" d="M137.322,-1086.04C125.569,-1024.43 42.4772,-588.847 30.8505,-527.897"/>
</g>
<!-- 10&#45;&#45;49 -->
<g id="edge122" class="edge"><title>10&#45;&#45;49</title>
<path fill="none" stroke="black" d="M144.18,-1097.81C178.313,-1126.04 361.485,-1277.58 395.529,-1305.74"/>
</g>
<!-- 10&#45;&#45;12 -->
<g id="edge112" class="edge"><title>10&#45;&#45;12</title>
<path fill="none" stroke="black" d="M145.824,-1094.18C230.242,-1104.84 1038.24,-1206.91 1121.65,-1217.45"/>
</g>
<!-- 10&#45;&#45;13 -->
<g id="edge114" class="edge"><title>10&#45;&#45;13</title>
<path fill="none" stroke="black" d="M134.776,-1087.09C126.076,-1073.38 105.259,-1040.58 96.5679,-1026.88"/>
</g>
<!-- 20&#45;&#45;36 -->
<g id="edge208" class="edge"><title>20&#45;&#45;36</title>
<path fill="none" stroke="black" d="M61.9311,-947.214C119.702,-989.187 585.478,-1327.59 643.474,-1369.73"/>
</g>
<!-- 20&#45;&#45;48 -->
<g id="edge210" class="edge"><title>20&#45;&#45;48</title>
<path fill="none" stroke="black" d="M53.8853,-936.259C48.9299,-921.008 36.8341,-883.781 31.7793,-868.224"/>
</g>
<!-- 20&#45;&#45;29 -->
<g id="edge206" class="edge"><title>20&#45;&#45;29</title>
<path fill="none" stroke="black" d="M59.4374,-936.802C101.281,-860.689 518.422,-101.911 560.68,-25.0444"/>
</g>
<!-- 20&#45;&#45;22 -->
<g id="edge202" class="edge"><title>20&#45;&#45;22</title>
<path fill="none" stroke="black" d="M56.5213,-935.594C60.4594,-872.999 88.3031,-430.436 92.1992,-368.51"/>
</g>
<!-- 20&#45;&#45;23 -->
<g id="edge204" class="edge"><title>20&#45;&#45;23</title>
<path fill="none" stroke="black" d="M60.2375,-948.7C86.2755,-984.538 226.008,-1176.86 251.979,-1212.61"/>
</g>
<!-- 30&#45;&#45;47 -->
<g id="edge278" class="edge"><title>30&#45;&#45;47</title>
<path fill="none" stroke="black" d="M188.814,-228.181C178.464,-240.692 153.7,-270.626 143.361,-283.124"/>
</g>
<!-- 30&#45;&#45;39 -->
<g id="edge276" class="edge"><title>30&#45;&#45;39</title>
<path fill="none" stroke="black" d="M190.359,-229.177C168.453,-275.729 38.193,-552.547 16.4678,-598.715"/>
</g>
<!-- 30&#45;&#45;32 -->
<g id="edge272" class="edge"><title>30&#45;&#45;32</title>
<path fill="none" stroke="black" d="M199.148,-227.22C278.273,-292.678 1161.2,-1023.1 1240.36,-1088.59"/>
</g>
<!-- 30&#45;&#45;33 -->
<g id="edge274" class="edge"><title>30&#45;&#45;33</title>
<path fill="none" stroke="black" d="M198.826,-217.519C210.663,-206.404 238.983,-179.809 250.807,-168.706"/>
</g>
<!-- 40&#45;&#45;46 -->
<g id="edge326" class="edge"><title>40&#45;&#45;46</title>
<path fill="none" stroke="black" d="M827.23,-1360.64C861.381,-1347.12 1017.25,-1285.4 1052.13,-1271.59"/>
</g>
<!-- 40&#45;&#45;42 -->
<g id="edge322" class="edge"><title>40&#45;&#45;42</title>
<path fill="none" stroke="black" d="M814.981,-1358.61C746.831,-1302.23 80.9565,-751.371 13.5044,-695.569"/>
</g>
<!-- 40&#45;&#45;43 -->
<g id="edge324" class="edge"><title>40&#45;&#45;43</title>
<path fill="none" stroke="black" d="M813.626,-1364.14C797.717,-1366.15 758.882,-1371.06 742.654,-1373.11"/>
</g>
<!-- 11&#45;&#45;45 -->
<g id="edge134" class="edge"><title>11&#45;&#45;45</title>
<path fill="none" stroke="black" d="M1370.56,-687.622C1288.54,-642.533 415.422,-162.531 332.05,-116.697"/>
</g>
<!-- 11&#45;&#45;17 -->
<g id="edge128" class="edge"><title>11&#45;&#45;17</title>
<path fill="none" stroke="black" d="M1375.81,-698.329C1372.27,-726.324 1359.62,-826.495 1356.13,-854.114"/>
</g>
<!-- 11&#45;&#45;28 -->
<g id="edge130" class="edge"><title>11&#45;&#45;28</title>
<path fill="none" stroke="black" d="M1372.26,-685.605C1322.61,-625.588 875.701,-85.3732 825.235,-24.3695"/>
</g>
<!-- 11&#45;&#45;39 -->
<g id="edge132" class="edge"><title>11&#45;&#45;39</title>
<path fill="none" stroke="black" d="M1369.72,-690.575C1269.26,-684.254 121.155,-612.022 20.4421,-605.685"/>
</g>
<!-- 11&#45;&#45;13 -->
<g id="edge124" class="edge"><title>11&#45;&#45;13</title>
<path fill="none" stroke="black" d="M1369.82,-692.79C1273.29,-717.575 196.147,-994.139 99.5675,-1018.94"/>
</g>
<!-- 11&#45;&#45;14 -->
<g id="edge126" class="edge"><title>11&#45;&#45;14</title>
<path fill="none" stroke="black" d="M1376.29,-683.997C1375.28,-667.992 1372.83,-628.927 1371.8,-612.601"/>
</g>
<!-- 21&#45;&#45;25 -->
<g id="edge216" class="edge"><title>21&#45;&#45;25</title>
<path fill="none" stroke="black" d="M476.259,-1336.29C430.741,-1281.27 63.7565,-837.664 18.0612,-782.428"/>
</g>
<!-- 21&#45;&#45;37 -->
<g id="edge218" class="edge"><title>21&#45;&#45;37</title>
<path fill="none" stroke="black" d="M487.698,-1343.64C503.23,-1347.62 541.143,-1357.36 556.987,-1361.43"/>
</g>
<!-- 21&#45;&#45;49 -->
<g id="edge220" class="edge"><title>21&#45;&#45;49</title>
<path fill="none" stroke="black" d="M474.346,-1339.3C459.437,-1333.39 423.042,-1318.99 407.833,-1312.96"/>
</g>
<!-- 21&#45;&#45;23 -->
<g id="edge212" class="edge"><title>21&#45;&#45;23</title>
<path fill="none" stroke="black" d="M474.401,-1338.32C441.726,-1320.36 295.382,-1239.91 262.645,-1221.91"/>
</g>
<!-- 21&#45;&#45;24 -->
<g id="edge214" class="edge"><title>21&#45;&#45;24</title>
<path fill="none" stroke="black" d="M483.06,-1335.19C514.229,-1239.27 870.416,-143.035 901.661,-46.8722"/>
</g>
<!-- 31&#45;&#45;35 -->
<g id="edge284" class="edge"><title>31&#45;&#45;35</title>
<path fill="none" stroke="black" d="M977.216,-1312.84C962.306,-1318.74 925.912,-1333.15 910.703,-1339.17"/>
</g>
<!-- 31&#45;&#45;48 -->
<g id="edge286" class="edge"><title>31&#45;&#45;48</title>
<path fill="none" stroke="black" d="M977.409,-1307.26C898.82,-1270.28 115.346,-901.607 35.9776,-864.259"/>
</g>
<!-- 31&#45;&#45;33 -->
<g id="edge280" class="edge"><title>31&#45;&#45;33</title>
<path fill="none" stroke="black" d="M979.84,-1304.08C925.086,-1217.8 313.532,-254.146 259.888,-169.616"/>
</g>
<!-- 31&#45;&#45;34 -->
<g id="edge282" class="edge"><title>31&#45;&#45;34</title>
<path fill="none" stroke="black" d="M989.741,-1305.9C1019.91,-1283.98 1155.01,-1185.82 1185.24,-1163.86"/>
</g>
<!-- 41&#45;&#45;47 -->
<g id="edge332" class="edge"><title>41&#45;&#45;47</title>
<path fill="none" stroke="black" d="M474.946,-44.4599C433.324,-74.7003 185.818,-254.524 144.538,-284.515"/>
</g>
<!-- 41&#45;&#45;43 -->
<g id="edge328" class="edge"><title>41&#45;&#45;43</title>
<path fill="none" stroke="black" d="M482.254,-47.3215C501.403,-147.699 715.266,-1268.81 734.026,-1367.15"/>
</g>
<!-- 41&#45;&#45;44 -->
<g id="edge330" class="edge"><title>41&#45;&#45;44</title>
<path fill="none" stroke="black" d="M474.346,-42.7339C459.437,-48.6371 423.042,-63.0465 407.833,-69.0682"/>
</g>
<!-- 12&#45;&#45;35 -->
<g id="edge142" class="edge"><title>12&#45;&#45;35</title>
<path fill="none" stroke="black" d="M1122.11,-1221.89C1089.44,-1239.86 943.094,-1320.31 910.357,-1338.31"/>
</g>
<!-- 12&#45;&#45;46 -->
<g id="edge144" class="edge"><title>12&#45;&#45;46</title>
<path fill="none" stroke="black" d="M1122.67,-1222.64C1109.53,-1232.18 1078.1,-1255.02 1064.98,-1264.55"/>
</g>
<!-- 12&#45;&#45;18 -->
<g id="edge138" class="edge"><title>12&#45;&#45;18</title>
<path fill="none" stroke="black" d="M1126.02,-1211.82C1090,-1120.83 688.018,-105.552 651.975,-14.5187"/>
</g>
<!-- 12&#45;&#45;29 -->
<g id="edge140" class="edge"><title>12&#45;&#45;29</title>
<path fill="none" stroke="black" d="M1125.56,-1211.88C1083.13,-1121.7 609.625,-115.455 567.169,-25.2323"/>
</g>
<!-- 12&#45;&#45;14 -->
<g id="edge136" class="edge"><title>12&#45;&#45;14</title>
<path fill="none" stroke="black" d="M1131.32,-1211.44C1156.22,-1148.56 1343.82,-674.728 1368.63,-612.075"/>
</g>
<!-- 22&#45;&#45;45 -->
<g id="edge228" class="edge"><title>22&#45;&#45;45</title>
<path fill="none" stroke="black" d="M97.5183,-356.137C127.843,-323.845 290.578,-150.549 320.824,-118.34"/>
</g>
<!-- 22&#45;&#45;26 -->
<g id="edge224" class="edge"><title>22&#45;&#45;26</title>
<path fill="none" stroke="black" d="M89.657,-367.684C82.8293,-382.193 66.163,-417.611 59.1983,-432.412"/>
</g>
<!-- 22&#45;&#45;38 -->
<g id="edge226" class="edge"><title>22&#45;&#45;38</title>
<path fill="none" stroke="black" d="M89.938,-368.173C79.5503,-394.41 42.3819,-488.286 32.1337,-514.17"/>
</g>
<!-- 22&#45;&#45;24 -->
<g id="edge222" class="edge"><title>22&#45;&#45;24</title>
<path fill="none" stroke="black" d="M99.1812,-358.735C171.603,-330.061 823.479,-71.9648 897.092,-42.8193"/>
</g>
<!-- 32&#45;&#45;36 -->
<g id="edge290" class="edge"><title>32&#45;&#45;36</title>
<path fill="none" stroke="black" d="M1239.33,-1096.43C1178.13,-1125.23 717.016,-1342.21 656.044,-1370.9"/>
</g>
<!-- 32&#45;&#45;49 -->
<g id="edge292" class="edge"><title>32&#45;&#45;49</title>
<path fill="none" stroke="black" d="M1239.23,-1095.02C1163.78,-1114.39 484.7,-1288.75 408.014,-1308.44"/>
</g>
<!-- 32&#45;&#45;34 -->
<g id="edge288" class="edge"><title>32&#45;&#45;34</title>
<path fill="none" stroke="black" d="M1241.36,-1098.92C1231.01,-1111.43 1206.25,-1141.37 1195.91,-1153.87"/>
</g>
<!-- 42&#45;&#45;48 -->
<g id="edge336" class="edge"><title>42&#45;&#45;48</title>
<path fill="none" stroke="black" d="M8.92385,-698.329C12.4605,-726.324 25.115,-826.495 28.6041,-854.114"/>
</g>
<!-- 42&#45;&#45;44 -->
<g id="edge334" class="edge"><title>42&#45;&#45;44</title>
<path fill="none" stroke="black" d="M11.8894,-684.887C50.152,-624.595 358.644,-138.489 397.056,-77.9616"/>
</g>
<!-- 13&#45;&#45;25 -->
<g id="edge148" class="edge"><title>13&#45;&#45;25</title>
<path fill="none" stroke="black" d="M90.4491,-1013.93C79.0988,-979.001 27.2933,-819.56 15.7018,-783.885"/>
</g>
<!-- 13&#45;&#45;36 -->
<g id="edge150" class="edge"><title>13&#45;&#45;36</title>
<path fill="none" stroke="black" d="M98.904,-1024.68C156.008,-1060.92 586.294,-1333.99 643.19,-1370.09"/>
</g>
<!-- 13&#45;&#45;47 -->
<g id="edge152" class="edge"><title>13&#45;&#45;47</title>
<path fill="none" stroke="black" d="M93.1073,-1013.47C97.5911,-942.2 133.742,-367.605 138.243,-296.059"/>
</g>
<!-- 13&#45;&#45;19 -->
<g id="edge146" class="edge"><title>13&#45;&#45;19</title>
<path fill="none" stroke="black" d="M97.4459,-1015.61C164.435,-944.27 911.933,-148.266 978.956,-76.8936"/>
</g>
<!-- 23&#45;&#45;46 -->
<g id="edge234" class="edge"><title>23&#45;&#45;46</title>
<path fill="none" stroke="black" d="M263.321,-1218.78C338.365,-1223.5 977.343,-1263.7 1051.97,-1268.4"/>
</g>
<!-- 23&#45;&#45;27 -->
<g id="edge230" class="edge"><title>23&#45;&#45;27</title>
<path fill="none" stroke="black" d="M250.793,-1213.31C238.957,-1202.2 210.637,-1175.6 198.813,-1164.5"/>
</g>
<!-- 23&#45;&#45;39 -->
<g id="edge232" class="edge"><title>23&#45;&#45;39</title>
<path fill="none" stroke="black" d="M253.409,-1211.44C228.512,-1148.56 40.908,-674.728 16.1017,-612.075"/>
</g>
<!-- 33&#45;&#45;45 -->
<g id="edge296" class="edge"><title>33&#45;&#45;45</title>
<path fill="none" stroke="black" d="M262.063,-159.396C275.199,-149.852 306.629,-127.016 319.751,-117.482"/>
</g>
<!-- 33&#45;&#45;37 -->
<g id="edge294" class="edge"><title>33&#45;&#45;37</title>
<path fill="none" stroke="black" d="M257.944,-170.747C282.001,-264.446 538.352,-1262.87 562.332,-1356.26"/>
</g>
<!-- 43&#45;&#45;49 -->
<g id="edge338" class="edge"><title>43&#45;&#45;49</title>
<path fill="none" stroke="black" d="M728.354,-1372.7C684.84,-1364.4 451.324,-1319.85 407.922,-1311.57"/>
</g>
<!-- 14&#45;&#45;15 -->
<g id="edge154" class="edge"><title>14&#45;&#45;15</title>
<path fill="none" stroke="black" d="M1368.72,-598.632C1352.41,-557.444 1264.9,-336.411 1248.63,-295.329"/>
</g>
<!-- 14&#45;&#45;26 -->
<g id="edge156" class="edge"><title>14&#45;&#45;26</title>
<path fill="none" stroke="black" d="M1364.26,-604.348C1265.38,-591.857 162.069,-452.476 63.1426,-439.979"/>
</g>
<!-- 14&#45;&#45;37 -->
<g id="edge158" class="edge"><title>14&#45;&#45;37</title>
<path fill="none" stroke="black" d="M1366.18,-610.083C1300.93,-671.362 636.891,-1294.93 569.619,-1358.1"/>
</g>
<!-- 14&#45;&#45;48 -->
<g id="edge160" class="edge"><title>14&#45;&#45;48</title>
<path fill="none" stroke="black" d="M1364.44,-606.558C1265.55,-625.421 135.56,-840.979 36.4352,-859.888"/>
</g>
<!-- 24&#45;&#45;35 -->
<g id="edge238" class="edge"><title>24&#45;&#45;35</title>
<path fill="none" stroke="black" d="M903.847,-47.1486C903.847,-145.007 903.847,-1236.97 903.847,-1334.88"/>
</g>
<!-- 24&#45;&#45;47 -->
<g id="edge240" class="edge"><title>24&#45;&#45;47</title>
<path fill="none" stroke="black" d="M896.761,-42.4472C824.145,-66.0416 216.425,-263.502 145.457,-286.561"/>
</g>
<!-- 24&#45;&#45;28 -->
<g id="edge236" class="edge"><title>24&#45;&#45;28</title>
<path fill="none" stroke="black" d="M897.035,-38.3958C881.503,-34.4078 843.59,-24.6734 827.746,-20.6054"/>
</g>
<!-- 34&#45;&#45;46 -->
<g id="edge300" class="edge"><title>34&#45;&#45;46</title>
<path fill="none" stroke="black" d="M1185.57,-1164.2C1163.83,-1182.18 1086.03,-1246.54 1064.58,-1264.29"/>
</g>
<!-- 34&#45;&#45;38 -->
<g id="edge298" class="edge"><title>34&#45;&#45;38</title>
<path fill="none" stroke="black" d="M1185,-1156.06C1097.66,-1108.05 123.137,-572.298 35.7577,-524.261"/>
</g>
<!-- 44&#45;&#45;45 -->
<g id="edge340" class="edge"><title>44&#45;&#45;45</title>
<path fill="none" stroke="black" d="M394.814,-75.1709C380.762,-82.8962 346.461,-101.753 332.126,-109.634"/>
</g>
</g>
</svg>
