<?xml version="1.0" encoding="UTF-8" standalone="no"?>
<!DOCTYPE svg PUBLIC "-//W3C//DTD SVG 1.1//EN"
 "http://www.w3.org/Graphics/SVG/1.1/DTD/svg11.dtd">
<!-- Generated by graphviz version 2.26.3 (20100126.1600)
 -->
<!-- Title: G5 Pages: 1 -->
<svg width="90pt" height="80pt"
 viewBox="0.00 0.00 360.00 317.92" xmlns="http://www.w3.org/2000/svg" xmlns:xlink="http://www.w3.org/1999/xlink">
<g id="graph1" class="graph" transform="scale(1.91237 1.91237) rotate(0) translate(4 162.243)">
<title>G5</title>
<polygon fill="white" stroke="white" points="-4,5 -4,-162.243 185.248,-162.243 185.248,5 -4,5"/>
<!-- 0 -->
<g id="node1" class="node"><title>0</title>
<ellipse fill="black" stroke="black" cx="131.186" cy="-8" rx="7" ry="7"/>
</g>
<!-- 1 -->
<g id="node3" class="node"><title>1</title>
<ellipse fill="black" stroke="black" cx="172.248" cy="-79.1214" rx="7" ry="7"/>
</g>
<!-- 0&#45;&#45;1 -->
<g id="edge2" class="edge"><title>0&#45;&#45;1</title>
<path fill="none" stroke="black" d="M134.687,-14.0638C142.367,-27.3662 160.636,-59.0093 168.52,-72.6647"/>
</g>
<!-- 2 -->
<g id="node5" class="node"><title>2</title>
<ellipse fill="black" stroke="black" cx="8" cy="-79.1214" rx="7" ry="7"/>
</g>
<!-- 0&#45;&#45;2 -->
<g id="edge4" class="edge"><title>0&#45;&#45;2</title>
<path fill="none" stroke="black" d="M124.908,-11.6247C103.727,-23.8533 35.0606,-63.498 14.1193,-75.5884"/>
</g>
<!-- 3 -->
<g id="node7" class="node"><title>3</title>
<ellipse fill="black" stroke="black" cx="49.062" cy="-150.243" rx="7" ry="7"/>
</g>
<!-- 0&#45;&#45;3 -->
<g id="edge6" class="edge"><title>0&#45;&#45;3</title>
<path fill="none" stroke="black" d="M127.657,-14.112C114.21,-37.4031 66.252,-120.469 52.6701,-143.993"/>
</g>
<!-- 4 -->
<g id="node9" class="node"><title>4</title>
<ellipse fill="black" stroke="black" cx="131.186" cy="-150.243" rx="7" ry="7"/>
</g>
<!-- 0&#45;&#45;4 -->
<g id="edge8" class="edge"><title>0&#45;&#45;4</title>
<path fill="none" stroke="black" d="M131.186,-15.2494C131.186,-39.7066 131.186,-118.996 131.186,-143.177"/>
</g>
<!-- 5 -->
<g id="node11" class="node"><title>5</title>
<ellipse fill="black" stroke="black" cx="49.062" cy="-8" rx="7" ry="7"/>
</g>
<!-- 0&#45;&#45;5 -->
<g id="edge10" class="edge"><title>0&#45;&#45;5</title>
<path fill="none" stroke="black" d="M124.184,-8C108.824,-8 72.2855,-8 56.5175,-8"/>
</g>
<!-- 1&#45;&#45;2 -->
<g id="edge12" class="edge"><title>1&#45;&#45;2</title>
<path fill="none" stroke="black" d="M165.19,-79.1214C138.296,-79.1214 42.3801,-79.1214 15.2162,-79.1214"/>
</g>
<!-- 1&#45;&#45;3 -->
<g id="edge14" class="edge"><title>1&#45;&#45;3</title>
<path fill="none" stroke="black" d="M165.97,-82.7461C144.789,-94.9747 76.1225,-134.619 55.1813,-146.71"/>
</g>
<!-- 1&#45;&#45;4 -->
<g id="edge16" class="edge"><title>1&#45;&#45;4</title>
<path fill="none" stroke="black" d="M168.747,-85.1852C161.067,-98.4877 142.798,-130.131 134.914,-143.786"/>
</g>
<!-- 1&#45;&#45;5 -->
<g id="edge18" class="edge"><title>1&#45;&#45;5</title>
<path fill="none" stroke="black" d="M165.97,-75.4967C144.789,-63.2681 76.1225,-23.6234 55.1813,-11.533"/>
</g>
<!-- 2&#45;&#45;3 -->
<g id="edge20" class="edge"><title>2&#45;&#45;3</title>
<path fill="none" stroke="black" d="M11.5009,-85.1852C19.1811,-98.4877 37.4502,-130.131 45.3342,-143.786"/>
</g>
<!-- 2&#45;&#45;4 -->
<g id="edge22" class="edge"><title>2&#45;&#45;4</title>
<path fill="none" stroke="black" d="M14.2782,-82.7461C35.4587,-94.9747 104.125,-134.619 125.067,-146.71"/>
</g>
<!-- 2&#45;&#45;5 -->
<g id="edge24" class="edge"><title>2&#45;&#45;5</title>
<path fill="none" stroke="black" d="M11.5009,-73.0577C19.1811,-59.7552 37.4502,-28.1121 45.3342,-14.4567"/>
</g>
<!-- 3&#45;&#45;4 -->
<g id="edge26" class="edge"><title>3&#45;&#45;4</title>
<path fill="none" stroke="black" d="M56.0638,-150.243C71.4242,-150.243 107.962,-150.243 123.73,-150.243"/>
</g>
<!-- 3&#45;&#45;5 -->
<g id="edge28" class="edge"><title>3&#45;&#45;5</title>
<path fill="none" stroke="black" d="M49.062,-142.993C49.062,-118.536 49.062,-39.2468 49.062,-15.066"/>
</g>
<!-- 4&#45;&#45;5 -->
<g id="edge30" class="edge"><title>4&#45;&#45;5</title>
<path fill="none" stroke="black" d="M127.657,-144.131C114.21,-120.84 66.252,-37.7741 52.6701,-14.2494"/>
</g>
</g>
</svg>
