<?xml version="1.0" encoding="UTF-8" standalone="no"?>
<!DOCTYPE svg PUBLIC "-//W3C//DTD SVG 1.1//EN"
 "http://www.w3.org/Graphics/SVG/1.1/DTD/svg11.dtd">
<!-- Generated by graphviz version 2.26.3 (20100126.1600)
 -->
<!-- Title: G10 Pages: 1 -->
<svg width="90pt" height="90pt"
 viewBox="0.00 0.00 355.02 360.00" xmlns="http://www.w3.org/2000/svg" xmlns:xlink="http://www.w3.org/1999/xlink">
<g id="graph1" class="graph" transform="scale(1.35019 1.35019) rotate(0) translate(4 262.629)">
<title>G10</title>
<polygon fill="white" stroke="white" points="-4,5 -4,-262.629 259.943,-262.629 259.943,5 -4,5"/>
<!-- 0 -->
<g id="node1" class="node"><title>0</title>
<ellipse fill="black" stroke="black" cx="218.123" cy="-50.1321" rx="7" ry="7"/>
</g>
<!-- 1 -->
<g id="node3" class="node"><title>1</title>
<ellipse fill="black" stroke="black" cx="246.943" cy="-129.314" rx="7" ry="7"/>
</g>
<!-- 0&#45;&#45;1 -->
<g id="edge2" class="edge"><title>0&#45;&#45;1</title>
<path fill="none" stroke="black" d="M220.58,-56.8831C226.025,-71.8429 239.053,-107.637 244.492,-122.58"/>
</g>
<!-- 2 -->
<g id="node5" class="node"><title>2</title>
<ellipse fill="black" stroke="black" cx="62.1639" cy="-22.6323" rx="7" ry="7"/>
</g>
<!-- 0&#45;&#45;2 -->
<g id="edge4" class="edge"><title>0&#45;&#45;2</title>
<path fill="none" stroke="black" d="M211.016,-48.879C185.035,-44.2978 95.3615,-28.4859 69.3122,-23.8927"/>
</g>
<!-- 3 -->
<g id="node7" class="node"><title>3</title>
<ellipse fill="black" stroke="black" cx="8" cy="-87.1824" rx="7" ry="7"/>
</g>
<!-- 0&#45;&#45;3 -->
<g id="edge6" class="edge"><title>0&#45;&#45;3</title>
<path fill="none" stroke="black" d="M211.132,-51.3648C179.23,-56.99 47.6335,-80.1939 15.2329,-85.907"/>
</g>
<!-- 4 -->
<g id="node9" class="node"><title>4</title>
<ellipse fill="black" stroke="black" cx="8" cy="-171.447" rx="7" ry="7"/>
</g>
<!-- 0&#45;&#45;4 -->
<g id="edge8" class="edge"><title>0&#45;&#45;4</title>
<path fill="none" stroke="black" d="M211.604,-53.8958C180.294,-71.9728 45.5852,-149.747 14.4429,-167.727"/>
</g>
<!-- 5 -->
<g id="node11" class="node"><title>5</title>
<ellipse fill="black" stroke="black" cx="62.1639" cy="-235.997" rx="7" ry="7"/>
</g>
<!-- 0&#45;&#45;5 -->
<g id="edge10" class="edge"><title>0&#45;&#45;5</title>
<path fill="none" stroke="black" d="M213.284,-55.8984C190.045,-83.594 90.0607,-202.751 66.9461,-230.297"/>
</g>
<!-- 6 -->
<g id="node13" class="node"><title>6</title>
<ellipse fill="black" stroke="black" cx="145.148" cy="-250.629" rx="7" ry="7"/>
</g>
<!-- 0&#45;&#45;6 -->
<g id="edge12" class="edge"><title>0&#45;&#45;6</title>
<path fill="none" stroke="black" d="M215.695,-56.803C204.615,-87.2436 158.912,-212.811 147.66,-243.727"/>
</g>
<!-- 7 -->
<g id="node15" class="node"><title>7</title>
<ellipse fill="black" stroke="black" cx="218.123" cy="-208.497" rx="7" ry="7"/>
</g>
<!-- 0&#45;&#45;7 -->
<g id="edge14" class="edge"><title>0&#45;&#45;7</title>
<path fill="none" stroke="black" d="M218.123,-57.3482C218.123,-83.7303 218.123,-174.787 218.123,-201.238"/>
</g>
<!-- 8 -->
<g id="node17" class="node"><title>8</title>
<ellipse fill="black" stroke="black" cx="145.148" cy="-8" rx="7" ry="7"/>
</g>
<!-- 0&#45;&#45;8 -->
<g id="edge16" class="edge"><title>0&#45;&#45;8</title>
<path fill="none" stroke="black" d="M211.901,-46.5399C198.114,-38.58 165.126,-19.5345 151.354,-11.5831"/>
</g>
<!-- 1&#45;&#45;2 -->
<g id="edge18" class="edge"><title>1&#45;&#45;2</title>
<path fill="none" stroke="black" d="M240.795,-125.765C212.741,-109.568 97.017,-42.7547 68.5245,-26.3046"/>
</g>
<!-- 1&#45;&#45;3 -->
<g id="edge20" class="edge"><title>1&#45;&#45;3</title>
<path fill="none" stroke="black" d="M239.792,-128.054C204.694,-121.865 50.9169,-94.7498 15.3575,-88.4797"/>
</g>
<!-- 1&#45;&#45;4 -->
<g id="edge22" class="edge"><title>1&#45;&#45;4</title>
<path fill="none" stroke="black" d="M239.792,-130.575C204.694,-136.764 50.9169,-163.879 15.3575,-170.149"/>
</g>
<!-- 1&#45;&#45;5 -->
<g id="edge24" class="edge"><title>1&#45;&#45;5</title>
<path fill="none" stroke="black" d="M240.795,-132.864C212.741,-149.061 97.017,-215.874 68.5245,-232.324"/>
</g>
<!-- 1&#45;&#45;6 -->
<g id="edge26" class="edge"><title>1&#45;&#45;6</title>
<path fill="none" stroke="black" d="M242.304,-134.842C225.346,-155.052 166.816,-224.806 149.814,-245.069"/>
</g>
<!-- 1&#45;&#45;7 -->
<g id="edge28" class="edge"><title>1&#45;&#45;7</title>
<path fill="none" stroke="black" d="M244.486,-136.066C239.041,-151.025 226.013,-186.819 220.574,-201.763"/>
</g>
<!-- 1&#45;&#45;8 -->
<g id="edge30" class="edge"><title>1&#45;&#45;8</title>
<path fill="none" stroke="black" d="M242.304,-123.787C225.346,-103.577 166.816,-33.8231 149.814,-13.5603"/>
</g>
<!-- 2&#45;&#45;3 -->
<g id="edge32" class="edge"><title>2&#45;&#45;3</title>
<path fill="none" stroke="black" d="M57.546,-28.1358C47.3129,-40.3311 22.8285,-69.5104 12.6063,-81.6928"/>
</g>
<!-- 2&#45;&#45;4 -->
<g id="edge34" class="edge"><title>2&#45;&#45;4</title>
<path fill="none" stroke="black" d="M59.6959,-29.4132C50.6727,-54.2043 19.5294,-139.77 10.4826,-164.626"/>
</g>
<!-- 2&#45;&#45;5 -->
<g id="edge36" class="edge"><title>2&#45;&#45;5</title>
<path fill="none" stroke="black" d="M62.1639,-29.7313C62.1639,-62.1256 62.1639,-195.752 62.1639,-228.652"/>
</g>
<!-- 2&#45;&#45;6 -->
<g id="edge38" class="edge"><title>2&#45;&#45;6</title>
<path fill="none" stroke="black" d="M64.7385,-29.7058C77.1039,-63.6794 130.304,-209.847 142.603,-243.638"/>
</g>
<!-- 2&#45;&#45;7 -->
<g id="edge40" class="edge"><title>2&#45;&#45;7</title>
<path fill="none" stroke="black" d="M67.0025,-28.3987C90.2418,-56.0942 190.226,-175.251 213.341,-202.798"/>
</g>
<!-- 2&#45;&#45;8 -->
<g id="edge42" class="edge"><title>2&#45;&#45;8</title>
<path fill="none" stroke="black" d="M69.2391,-21.3848C84.9171,-18.6203 122.429,-12.0059 138.091,-9.24439"/>
</g>
<!-- 3&#45;&#45;4 -->
<g id="edge44" class="edge"><title>3&#45;&#45;4</title>
<path fill="none" stroke="black" d="M8,-94.3667C8,-110.287 8,-148.377 8,-164.28"/>
</g>
<!-- 3&#45;&#45;5 -->
<g id="edge46" class="edge"><title>3&#45;&#45;5</title>
<path fill="none" stroke="black" d="M10.4681,-93.9633C19.4913,-118.754 50.6345,-204.32 59.6814,-229.176"/>
</g>
<!-- 3&#45;&#45;6 -->
<g id="edge48" class="edge"><title>3&#45;&#45;6</title>
<path fill="none" stroke="black" d="M12.5632,-92.6205C33.3858,-117.436 119.279,-219.8 140.427,-245.003"/>
</g>
<!-- 3&#45;&#45;7 -->
<g id="edge50" class="edge"><title>3&#45;&#45;7</title>
<path fill="none" stroke="black" d="M14.519,-90.9461C45.8292,-109.023 180.538,-186.797 211.68,-204.777"/>
</g>
<!-- 3&#45;&#45;8 -->
<g id="edge52" class="edge"><title>3&#45;&#45;8</title>
<path fill="none" stroke="black" d="M14.2493,-83.5743C37.0969,-70.3833 115.954,-24.8549 138.862,-11.6293"/>
</g>
<!-- 4&#45;&#45;5 -->
<g id="edge54" class="edge"><title>4&#45;&#45;5</title>
<path fill="none" stroke="black" d="M12.618,-176.95C22.8511,-189.145 47.3354,-218.325 57.5576,-230.507"/>
</g>
<!-- 4&#45;&#45;6 -->
<g id="edge56" class="edge"><title>4&#45;&#45;6</title>
<path fill="none" stroke="black" d="M14.2493,-175.055C37.0969,-188.246 115.954,-233.774 138.862,-247"/>
</g>
<!-- 4&#45;&#45;7 -->
<g id="edge58" class="edge"><title>4&#45;&#45;7</title>
<path fill="none" stroke="black" d="M14.9912,-172.679C46.8932,-178.304 178.489,-201.508 210.89,-207.221"/>
</g>
<!-- 4&#45;&#45;8 -->
<g id="edge60" class="edge"><title>4&#45;&#45;8</title>
<path fill="none" stroke="black" d="M12.5632,-166.008C33.3858,-141.193 119.279,-38.8294 140.427,-13.6262"/>
</g>
<!-- 5&#45;&#45;6 -->
<g id="edge62" class="edge"><title>5&#45;&#45;6</title>
<path fill="none" stroke="black" d="M69.2391,-237.244C84.9171,-240.009 122.429,-246.623 138.091,-249.385"/>
</g>
<!-- 5&#45;&#45;7 -->
<g id="edge64" class="edge"><title>5&#45;&#45;7</title>
<path fill="none" stroke="black" d="M69.2704,-234.744C95.2517,-230.162 184.925,-214.35 210.975,-209.757"/>
</g>
<!-- 5&#45;&#45;8 -->
<g id="edge66" class="edge"><title>5&#45;&#45;8</title>
<path fill="none" stroke="black" d="M64.7385,-228.923C77.1039,-194.949 130.304,-48.7824 142.603,-14.991"/>
</g>
<!-- 6&#45;&#45;7 -->
<g id="edge68" class="edge"><title>6&#45;&#45;7</title>
<path fill="none" stroke="black" d="M151.37,-247.037C165.157,-239.077 198.144,-220.031 211.917,-212.08"/>
</g>
<!-- 6&#45;&#45;8 -->
<g id="edge70" class="edge"><title>6&#45;&#45;8</title>
<path fill="none" stroke="black" d="M145.148,-243.368C145.148,-207.728 145.148,-51.579 145.148,-15.471"/>
</g>
<!-- 7&#45;&#45;8 -->
<g id="edge72" class="edge"><title>7&#45;&#45;8</title>
<path fill="none" stroke="black" d="M215.695,-201.826C204.615,-171.385 158.912,-45.8178 147.66,-14.9016"/>
</g>
</g>
</svg>
