<?xml version="1.0" encoding="UTF-8" standalone="no"?>
<!DOCTYPE svg PUBLIC "-//W3C//DTD SVG 1.1//EN"
 "http://www.w3.org/Graphics/SVG/1.1/DTD/svg11.dtd">
<!-- Generated by graphviz version 2.26.3 (20100126.1600)
 -->
<!-- Title: G11 Pages: 1 -->
<svg width="90pt" height="90pt"
 viewBox="0.00 0.00 360.00 343.80" xmlns="http://www.w3.org/2000/svg" xmlns:xlink="http://www.w3.org/1999/xlink">
<g id="graph1" class="graph" transform="scale(1.20908 1.20908) rotate(0) translate(4 280.348)">
<title>G11</title>
<polygon fill="white" stroke="white" points="-4,5 -4,-280.348 294.747,-280.348 294.747,5 -4,5"/>
<!-- 0 -->
<g id="node1" class="node"><title>0</title>
<ellipse fill="black" stroke="black" cx="255.606" cy="-57.7221" rx="7" ry="7"/>
</g>
<!-- 3 -->
<g id="node3" class="node"><title>3</title>
<ellipse fill="black" stroke="black" cx="187.169" cy="-8" rx="7" ry="7"/>
</g>
<!-- 0&#45;&#45;3 -->
<g id="edge2" class="edge"><title>0&#45;&#45;3</title>
<path fill="none" stroke="black" d="M249.771,-53.4828C236.842,-44.0889 205.905,-21.6125 192.99,-12.2285"/>
</g>
<!-- 6 -->
<g id="node5" class="node"><title>6</title>
<ellipse fill="black" stroke="black" cx="8" cy="-138.174" rx="7" ry="7"/>
</g>
<!-- 0&#45;&#45;6 -->
<g id="edge4" class="edge"><title>0&#45;&#45;6</title>
<path fill="none" stroke="black" d="M248.725,-59.9578C213.109,-71.5303 49.9878,-124.532 14.7311,-135.987"/>
</g>
<!-- 9 -->
<g id="node7" class="node"><title>9</title>
<ellipse fill="black" stroke="black" cx="187.169" cy="-268.348" rx="7" ry="7"/>
</g>
<!-- 0&#45;&#45;9 -->
<g id="edge6" class="edge"><title>0&#45;&#45;9</title>
<path fill="none" stroke="black" d="M253.329,-64.73C242.892,-96.8513 199.695,-229.8 189.386,-261.527"/>
</g>
<!-- 8 -->
<g id="node13" class="node"><title>8</title>
<ellipse fill="black" stroke="black" cx="102.577" cy="-8" rx="7" ry="7"/>
</g>
<!-- 3&#45;&#45;8 -->
<g id="edge22" class="edge"><title>3&#45;&#45;8</title>
<path fill="none" stroke="black" d="M179.957,-8C163.975,-8 125.736,-8 109.771,-8"/>
</g>
<!-- 7 -->
<g id="node19" class="node"><title>7</title>
<ellipse fill="black" stroke="black" cx="281.747" cy="-138.174" rx="7" ry="7"/>
</g>
<!-- 3&#45;&#45;7 -->
<g id="edge20" class="edge"><title>3&#45;&#45;7</title>
<path fill="none" stroke="black" d="M191.479,-13.9316C207.307,-35.7168 262.114,-111.153 277.627,-132.504"/>
</g>
<!-- 1 -->
<g id="node8" class="node"><title>1</title>
<ellipse fill="black" stroke="black" cx="34.1405" cy="-57.7221" rx="7" ry="7"/>
</g>
<!-- 1&#45;&#45;6 -->
<g id="edge10" class="edge"><title>1&#45;&#45;6</title>
<path fill="none" stroke="black" d="M31.9117,-64.5814C26.9731,-79.7811 15.1565,-116.149 10.2231,-131.332"/>
</g>
<!-- 4 -->
<g id="node10" class="node"><title>4</title>
<ellipse fill="black" stroke="black" cx="255.606" cy="-218.626" rx="7" ry="7"/>
</g>
<!-- 1&#45;&#45;4 -->
<g id="edge8" class="edge"><title>1&#45;&#45;4</title>
<path fill="none" stroke="black" d="M40.0641,-62.0259C71.4313,-84.8155 217.896,-191.229 249.56,-214.234"/>
</g>
<!-- 1&#45;&#45;8 -->
<g id="edge12" class="edge"><title>1&#45;&#45;8</title>
<path fill="none" stroke="black" d="M39.9753,-53.4828C52.9049,-44.0889 83.8411,-21.6125 96.757,-12.2285"/>
</g>
<!-- 4&#45;&#45;9 -->
<g id="edge26" class="edge"><title>4&#45;&#45;9</title>
<path fill="none" stroke="black" d="M249.771,-222.866C236.842,-232.259 205.905,-254.736 192.99,-264.12"/>
</g>
<!-- 4&#45;&#45;7 -->
<g id="edge24" class="edge"><title>4&#45;&#45;7</title>
<path fill="none" stroke="black" d="M257.835,-211.767C262.773,-196.567 274.59,-160.2 279.523,-145.016"/>
</g>
<!-- 2 -->
<g id="node14" class="node"><title>2</title>
<ellipse fill="black" stroke="black" cx="34.1405" cy="-218.626" rx="7" ry="7"/>
</g>
<!-- 2&#45;&#45;6 -->
<g id="edge16" class="edge"><title>2&#45;&#45;6</title>
<path fill="none" stroke="black" d="M31.9117,-211.767C26.9731,-196.567 15.1565,-160.2 10.2231,-145.016"/>
</g>
<!-- 5 -->
<g id="node16" class="node"><title>5</title>
<ellipse fill="black" stroke="black" cx="102.577" cy="-268.348" rx="7" ry="7"/>
</g>
<!-- 2&#45;&#45;5 -->
<g id="edge14" class="edge"><title>2&#45;&#45;5</title>
<path fill="none" stroke="black" d="M39.9753,-222.866C52.9049,-232.259 83.8411,-254.736 96.757,-264.12"/>
</g>
<!-- 2&#45;&#45;7 -->
<g id="edge18" class="edge"><title>2&#45;&#45;7</title>
<path fill="none" stroke="black" d="M41.0213,-216.391C76.6376,-204.818 239.759,-151.817 275.015,-140.361"/>
</g>
<!-- 5&#45;&#45;9 -->
<g id="edge30" class="edge"><title>5&#45;&#45;9</title>
<path fill="none" stroke="black" d="M109.789,-268.348C125.771,-268.348 164.01,-268.348 179.975,-268.348"/>
</g>
<!-- 5&#45;&#45;8 -->
<g id="edge28" class="edge"><title>5&#45;&#45;8</title>
<path fill="none" stroke="black" d="M102.577,-261.113C102.577,-223.664 102.577,-52.1486 102.577,-15.0775"/>
</g>
</g>
</svg>
