<?xml version="1.0" encoding="UTF-8" standalone="no"?>
<!DOCTYPE svg PUBLIC "-//W3C//DTD SVG 1.1//EN"
 "http://www.w3.org/Graphics/SVG/1.1/DTD/svg11.dtd">
<!-- Generated by graphviz version 2.26.3 (20100126.1600)
 -->
<!-- Title: G9 Pages: 1 -->
<svg width="90pt" height="90pt"
 viewBox="0.00 0.00 355.02 360.00" xmlns="http://www.w3.org/2000/svg" xmlns:xlink="http://www.w3.org/1999/xlink">
<g id="graph1" class="graph" transform="scale(1.35019 1.35019) rotate(0) translate(4 262.629)">
<title>G9</title>
<polygon fill="white" stroke="white" points="-4,5 -4,-262.629 259.943,-262.629 259.943,5 -4,5"/>
<!-- 0 -->
<g id="node1" class="node"><title>0</title>
<ellipse fill="black" stroke="black" cx="218.123" cy="-50.1321" rx="7" ry="7"/>
</g>
<!-- 4 -->
<g id="node3" class="node"><title>4</title>
<ellipse fill="black" stroke="black" cx="145.148" cy="-8" rx="7" ry="7"/>
</g>
<!-- 0&#45;&#45;4 -->
<g id="edge2" class="edge"><title>0&#45;&#45;4</title>
<path fill="none" stroke="black" d="M211.901,-46.5399C198.114,-38.58 165.126,-19.5345 151.354,-11.5831"/>
</g>
<!-- 5 -->
<g id="node5" class="node"><title>5</title>
<ellipse fill="black" stroke="black" cx="246.943" cy="-129.314" rx="7" ry="7"/>
</g>
<!-- 0&#45;&#45;5 -->
<g id="edge4" class="edge"><title>0&#45;&#45;5</title>
<path fill="none" stroke="black" d="M220.58,-56.8831C226.025,-71.8429 239.053,-107.637 244.492,-122.58"/>
</g>
<!-- 8 -->
<g id="node17" class="node"><title>8</title>
<ellipse fill="black" stroke="black" cx="62.1639" cy="-22.6323" rx="7" ry="7"/>
</g>
<!-- 4&#45;&#45;8 -->
<g id="edge18" class="edge"><title>4&#45;&#45;8</title>
<path fill="none" stroke="black" d="M138.073,-9.24754C122.395,-12.012 84.8826,-18.6264 69.2212,-21.3879"/>
</g>
<!-- 1 -->
<g id="node6" class="node"><title>1</title>
<ellipse fill="black" stroke="black" cx="218.123" cy="-208.497" rx="7" ry="7"/>
</g>
<!-- 1&#45;&#45;5 -->
<g id="edge6" class="edge"><title>1&#45;&#45;5</title>
<path fill="none" stroke="black" d="M220.58,-201.746C226.025,-186.786 239.053,-150.992 244.492,-136.048"/>
</g>
<!-- 6 -->
<g id="node9" class="node"><title>6</title>
<ellipse fill="black" stroke="black" cx="145.148" cy="-250.629" rx="7" ry="7"/>
</g>
<!-- 1&#45;&#45;6 -->
<g id="edge8" class="edge"><title>1&#45;&#45;6</title>
<path fill="none" stroke="black" d="M211.901,-212.089C198.114,-220.049 165.126,-239.094 151.354,-247.046"/>
</g>
<!-- 2 -->
<g id="node10" class="node"><title>2</title>
<ellipse fill="black" stroke="black" cx="62.1639" cy="-235.997" rx="7" ry="7"/>
</g>
<!-- 2&#45;&#45;6 -->
<g id="edge10" class="edge"><title>2&#45;&#45;6</title>
<path fill="none" stroke="black" d="M69.2391,-237.244C84.9171,-240.009 122.429,-246.623 138.091,-249.385"/>
</g>
<!-- 7 -->
<g id="node13" class="node"><title>7</title>
<ellipse fill="black" stroke="black" cx="8" cy="-171.447" rx="7" ry="7"/>
</g>
<!-- 2&#45;&#45;7 -->
<g id="edge12" class="edge"><title>2&#45;&#45;7</title>
<path fill="none" stroke="black" d="M57.546,-230.493C47.3129,-218.298 22.8285,-189.118 12.6063,-176.936"/>
</g>
<!-- 3 -->
<g id="node14" class="node"><title>3</title>
<ellipse fill="black" stroke="black" cx="8" cy="-87.1824" rx="7" ry="7"/>
</g>
<!-- 3&#45;&#45;7 -->
<g id="edge14" class="edge"><title>3&#45;&#45;7</title>
<path fill="none" stroke="black" d="M8,-94.3667C8,-110.287 8,-148.377 8,-164.28"/>
</g>
<!-- 3&#45;&#45;8 -->
<g id="edge16" class="edge"><title>3&#45;&#45;8</title>
<path fill="none" stroke="black" d="M12.618,-81.6789C22.8511,-69.4836 47.3354,-40.3043 57.5576,-28.1219"/>
</g>
</g>
</svg>
