<?xml version="1.0" encoding="UTF-8" standalone="no"?>
<!DOCTYPE svg PUBLIC "-//W3C//DTD SVG 1.1//EN"
 "http://www.w3.org/Graphics/SVG/1.1/DTD/svg11.dtd">
<!-- Generated by graphviz version 2.26.3 (20100126.1600)
 -->
<!-- Title: G7 Pages: 1 -->
<svg width="90pt" height="90pt"
 viewBox="0.00 0.00 352.00 360.00" xmlns="http://www.w3.org/2000/svg" xmlns:xlink="http://www.w3.org/1999/xlink">
<g id="graph1" class="graph" transform="scale(1.70763 1.70763) rotate(0) translate(4 206.818)">
<title>G7</title>
<polygon fill="white" stroke="white" points="-4,5 -4,-206.818 203.134,-206.818 203.134,5 -4,5"/>
<!-- 0 -->
<g id="node1" class="node"><title>0</title>
<ellipse fill="black" stroke="black" cx="154.06" cy="-26.5008" rx="7" ry="7"/>
</g>
<!-- 1 -->
<g id="node3" class="node"><title>1</title>
<ellipse fill="black" stroke="black" cx="190.134" cy="-101.409" rx="7" ry="7"/>
</g>
<!-- 0&#45;&#45;1 -->
<g id="edge2" class="edge"><title>0&#45;&#45;1</title>
<path fill="none" stroke="black" d="M157.136,-32.8875C163.951,-47.0397 180.258,-80.9014 187.066,-95.0386"/>
</g>
<!-- 2 -->
<g id="node5" class="node"><title>2</title>
<ellipse fill="black" stroke="black" cx="8" cy="-59.8381" rx="7" ry="7"/>
</g>
<!-- 0&#45;&#45;2 -->
<g id="edge4" class="edge"><title>0&#45;&#45;2</title>
<path fill="none" stroke="black" d="M147.016,-28.1087C122.284,-33.7535 39.5946,-52.6269 14.9741,-58.2463"/>
</g>
<!-- 3 -->
<g id="node7" class="node"><title>3</title>
<ellipse fill="black" stroke="black" cx="8" cy="-142.98" rx="7" ry="7"/>
</g>
<!-- 0&#45;&#45;3 -->
<g id="edge6" class="edge"><title>0&#45;&#45;3</title>
<path fill="none" stroke="black" d="M148.513,-30.9247C125.377,-49.3753 36.6996,-120.093 13.5529,-138.552"/>
</g>
<!-- 4 -->
<g id="node9" class="node"><title>4</title>
<ellipse fill="black" stroke="black" cx="73.003" cy="-194.818" rx="7" ry="7"/>
</g>
<!-- 0&#45;&#45;4 -->
<g id="edge8" class="edge"><title>0&#45;&#45;4</title>
<path fill="none" stroke="black" d="M150.982,-32.8935C138.142,-59.5554 88.9301,-161.745 76.0846,-188.419"/>
</g>
<!-- 5 -->
<g id="node11" class="node"><title>5</title>
<ellipse fill="black" stroke="black" cx="154.06" cy="-176.317" rx="7" ry="7"/>
</g>
<!-- 0&#45;&#45;5 -->
<g id="edge10" class="edge"><title>0&#45;&#45;5</title>
<path fill="none" stroke="black" d="M154.06,-33.7268C154.06,-59.0941 154.06,-143.91 154.06,-169.164"/>
</g>
<!-- 6 -->
<g id="node13" class="node"><title>6</title>
<ellipse fill="black" stroke="black" cx="73.003" cy="-8" rx="7" ry="7"/>
</g>
<!-- 0&#45;&#45;6 -->
<g id="edge12" class="edge"><title>0&#45;&#45;6</title>
<path fill="none" stroke="black" d="M147.149,-24.9234C131.835,-21.4281 95.1941,-13.065 79.8964,-9.57338"/>
</g>
<!-- 1&#45;&#45;2 -->
<g id="edge14" class="edge"><title>1&#45;&#45;2</title>
<path fill="none" stroke="black" d="M183.217,-99.8302C154.366,-93.2453 43.7879,-68.0065 14.9244,-61.4186"/>
</g>
<!-- 1&#45;&#45;3 -->
<g id="edge16" class="edge"><title>1&#45;&#45;3</title>
<path fill="none" stroke="black" d="M183.217,-102.988C154.366,-109.573 43.7879,-134.812 14.9244,-141.4"/>
</g>
<!-- 1&#45;&#45;4 -->
<g id="edge18" class="edge"><title>1&#45;&#45;4</title>
<path fill="none" stroke="black" d="M184.485,-105.914C164.652,-121.731 98.3399,-174.613 78.5958,-190.358"/>
</g>
<!-- 1&#45;&#45;5 -->
<g id="edge20" class="edge"><title>1&#45;&#45;5</title>
<path fill="none" stroke="black" d="M187.059,-107.796C180.243,-121.948 163.936,-155.81 157.128,-169.947"/>
</g>
<!-- 1&#45;&#45;6 -->
<g id="edge22" class="edge"><title>1&#45;&#45;6</title>
<path fill="none" stroke="black" d="M184.485,-96.9038C164.652,-81.0875 98.3399,-28.2055 78.5958,-12.4601"/>
</g>
<!-- 2&#45;&#45;3 -->
<g id="edge24" class="edge"><title>2&#45;&#45;3</title>
<path fill="none" stroke="black" d="M8,-66.9268C8,-82.6346 8,-120.218 8,-135.909"/>
</g>
<!-- 2&#45;&#45;4 -->
<g id="edge26" class="edge"><title>2&#45;&#45;4</title>
<path fill="none" stroke="black" d="M11.1352,-66.3485C22.1417,-89.2037 58.942,-165.62 69.8992,-188.373"/>
</g>
<!-- 2&#45;&#45;5 -->
<g id="edge28" class="edge"><title>2&#45;&#45;5</title>
<path fill="none" stroke="black" d="M13.5474,-64.262C36.6837,-82.7126 125.361,-153.43 148.507,-171.889"/>
</g>
<!-- 2&#45;&#45;6 -->
<g id="edge30" class="edge"><title>2&#45;&#45;6</title>
<path fill="none" stroke="black" d="M13.5421,-55.4184C25.823,-45.6248 55.207,-22.1918 67.4749,-12.4085"/>
</g>
<!-- 3&#45;&#45;4 -->
<g id="edge32" class="edge"><title>3&#45;&#45;4</title>
<path fill="none" stroke="black" d="M13.5421,-147.4C25.823,-157.193 55.207,-180.626 67.4749,-190.41"/>
</g>
<!-- 3&#45;&#45;5 -->
<g id="edge34" class="edge"><title>3&#45;&#45;5</title>
<path fill="none" stroke="black" d="M15.0448,-144.588C39.7761,-150.233 122.466,-169.106 147.086,-174.726"/>
</g>
<!-- 3&#45;&#45;6 -->
<g id="edge36" class="edge"><title>3&#45;&#45;6</title>
<path fill="none" stroke="black" d="M11.1352,-136.47C22.1417,-113.615 58.942,-37.1978 69.8992,-14.445"/>
</g>
<!-- 4&#45;&#45;5 -->
<g id="edge38" class="edge"><title>4&#45;&#45;5</title>
<path fill="none" stroke="black" d="M79.9139,-193.241C95.2279,-189.745 131.869,-181.382 147.167,-177.891"/>
</g>
<!-- 4&#45;&#45;6 -->
<g id="edge40" class="edge"><title>4&#45;&#45;6</title>
<path fill="none" stroke="black" d="M73.003,-187.723C73.003,-158.13 73.003,-44.7082 73.003,-15.1024"/>
</g>
<!-- 5&#45;&#45;6 -->
<g id="edge42" class="edge"><title>5&#45;&#45;6</title>
<path fill="none" stroke="black" d="M150.982,-169.925C138.142,-143.263 88.9301,-41.073 76.0846,-14.3991"/>
</g>
</g>
</svg>
